<svg width="76" height="76" viewBox="0 0 76 76" fill="none" xmlns="http://www.w3.org/2000/svg">
<path opacity="0.6" d="M47.9628 16.3269L55.4493 12.0046L41.4735 2.46861L27.4977 28.1425L34.9841 23.8202L35.1164 23.7438L35.1164 23.8966L35.1164 41.7276L47.8305 34.3871L47.8305 16.5561L47.8305 16.4033L47.9628 16.3269ZM16.9463 58.3654L16.9463 58.5182L16.814 58.5946L9.32754 62.9169L23.3034 72.4529L37.2792 46.779L29.7927 51.1013L29.6604 51.1777L29.6604 51.025L29.6604 33.1939L16.9463 40.5344L16.9463 58.3654Z" fill="#AFAFAF" stroke="black" stroke-width="0.305505"/>
<path d="M37.4469 28.4689L45.2341 23.9729L45.2341 41.9567L58.2128 34.4635L58.2128 16.4797L66 11.9838L51.7235 2.24256L37.4469 28.4689ZM33.5534 72.679L19.2768 62.9377L27.064 58.4418L27.064 40.458L40.0427 32.9648L40.0427 50.9486L47.8299 46.4526L33.5534 72.679Z" fill="#FCFCFC"/>
</svg>
