<svg width="140" height="140" viewBox="0 0 140 140" fill="none" xmlns="http://www.w3.org/2000/svg">
<g opacity="0.4">
<circle cx="11.7272" cy="11.7272" r="11.3421" transform="matrix(0.866025 0.5 -2.20305e-08 1 43.3682 33.6)" fill="white" stroke="black" stroke-width="0.770191"/>
<path d="M31.2549 71.2776C35.252 64.0328 43.7222 62.3348 53.5243 67.9941C63.3265 73.6533 71.7966 85.1318 75.7938 96.9921C77.0815 100.813 76.4784 103.444 74.8001 104.707C73.1127 105.977 70.3367 105.858 67.3177 104.115L39.731 88.1875C36.712 86.4445 33.936 83.3584 32.2486 80.1399C30.5703 76.9388 29.9672 73.6116 31.2549 71.2776Z" fill="white" stroke="black" stroke-width="0.770191"/>
</g>
<circle cx="11.7272" cy="11.7272" r="11.3421" transform="matrix(0.866025 0.5 -2.20305e-08 1 37.8955 33.6)" fill="white" stroke="black" stroke-width="0.770191"/>
<path d="M25.7823 71.2776C29.7794 64.0328 38.2495 62.3348 48.0517 67.9941C57.8538 73.6533 66.324 85.1318 70.3211 96.9921C71.6089 100.813 71.0058 103.444 69.3274 104.707C67.6401 105.977 64.864 105.858 61.845 104.115L34.2583 88.1875C31.2393 86.4445 28.4633 83.3584 26.7759 80.1399C25.0976 76.9388 24.4945 73.6116 25.7823 71.2776Z" fill="white" stroke="black" stroke-width="0.770191"/>
<g opacity="0.4">
<circle cx="11.7272" cy="11.7272" r="11.3421" transform="matrix(0.866025 0.5 -2.20305e-08 1 96.3682 59.6)" fill="white" stroke="black" stroke-width="0.770191"/>
<path d="M84.2549 97.2776C88.252 90.0328 96.7222 88.3348 106.524 93.9941C116.326 99.6533 124.797 111.132 128.794 122.992C130.082 126.813 129.478 129.444 127.8 130.707C126.113 131.977 123.337 131.858 120.318 130.115L92.731 114.187C89.712 112.444 86.936 109.358 85.2486 106.14C83.5703 102.939 82.9672 99.6116 84.2549 97.2776Z" fill="white" stroke="black" stroke-width="0.770191"/>
</g>
<circle cx="11.7272" cy="11.7272" r="11.3421" transform="matrix(0.866025 0.5 -2.20305e-08 1 90.8955 59.6)" fill="white" stroke="black" stroke-width="0.770191"/>
<path d="M78.7823 97.2776C82.7794 90.0328 91.2495 88.3348 101.052 93.9941C110.854 99.6533 119.324 111.132 123.321 122.992C124.609 126.813 124.006 129.444 122.327 130.707C120.64 131.977 117.864 131.858 114.845 130.115L87.2583 114.187C84.2393 112.444 81.4633 109.358 79.7759 106.14C78.0976 102.939 77.4945 99.6116 78.7823 97.2776Z" fill="white" stroke="black" stroke-width="0.770191"/>
<circle cx="15" cy="15" r="14.6149" transform="matrix(0.866025 0.5 -2.20305e-08 1 66.0525 30)" fill="#7A7A7A" stroke="black" stroke-width="0.770191"/>
<path d="M49.2623 80.7016C53.7117 69.2579 65.3666 65.9891 79.0429 73.8851C92.7193 81.7811 104.374 98.5079 108.824 115.089C109.847 118.902 109.113 121.516 107.368 122.756C105.617 124.001 102.847 123.858 99.8275 122.115L58.2583 98.1149C55.2391 96.3717 52.4688 93.3155 50.7178 90.0487C48.9732 86.794 48.2391 83.3333 49.2623 80.7016Z" fill="#7A7A7A" stroke="black" stroke-width="0.770191"/>
<circle cx="15" cy="15" r="14.6149" transform="matrix(0.866025 0.5 -2.20305e-08 1 59.0525 30)" fill="white" stroke="black" stroke-width="0.770191"/>
<path d="M42.2623 80.7016C46.7117 69.2579 58.3666 65.9891 72.0429 73.8851C85.7193 81.7811 97.3742 98.5079 101.824 115.089C102.847 118.902 102.113 121.516 100.368 122.756C98.6171 124.001 95.8468 123.858 92.8275 122.115L51.2583 98.1149C48.2391 96.3717 45.4688 93.3155 43.7178 90.0487C41.9732 86.794 41.2391 83.3333 42.2623 80.7016Z" fill="white" stroke="black" stroke-width="0.770191"/>
<g opacity="0.4">
<path fill-rule="evenodd" clip-rule="evenodd" d="M18.6313 13.5607L22.3056 19.9246L16.3485 23.364L22.3056 33.682L18.6313 35.8033L9 19.1213L18.6313 13.5607Z" fill="#4BBB93"/>
<path fill-rule="evenodd" clip-rule="evenodd" d="M30.0999 20.182L26.4256 22.3033L32.3827 32.6214L26.4256 36.0607L30.0999 42.4247L39.7312 36.864L30.0999 20.182Z" fill="#4BBB93"/>
</g>
<path fill-rule="evenodd" clip-rule="evenodd" d="M14.6313 13.5607L18.3056 19.9246L12.3485 23.364L18.3056 33.682L14.6313 35.8033L5 19.1213L14.6313 13.5607Z" fill="#4BBB93"/>
<path fill-rule="evenodd" clip-rule="evenodd" d="M26.0999 20.182L22.4256 22.3033L28.3827 32.6214L22.4256 36.0607L26.0999 42.4247L35.7312 36.864L26.0999 20.182Z" fill="#4BBB93"/>
</svg>
