<svg width="140" height="140" viewBox="0 0 140 140" fill="none" xmlns="http://www.w3.org/2000/svg">
<path d="M37.066 16.4556C37.066 13.741 39.9197 11.9728 42.3505 13.1813L106.953 45.2984C108.196 45.9163 108.982 47.1847 108.982 48.5727V118.826C108.982 121.54 106.128 123.308 103.697 122.1L39.0948 89.9829C37.8519 89.365 37.066 88.0966 37.066 86.7085V16.4556Z" fill="#5C5C5C" stroke="black" stroke-width="0.686656"/>
<mask id="path-2-inside-1_349_10037" fill="white">
<path d="M32 21.2579C32 16.8036 36.6824 13.9023 40.671 15.8852L101.274 46.0137C103.313 47.0276 104.603 49.1088 104.603 51.3864V117.172C104.603 121.627 99.9202 124.528 95.9316 122.545L35.329 92.4164C33.2895 91.4025 32 89.3213 32 87.0437V21.2579Z"/>
</mask>
<path d="M32 21.2579C32 16.8036 36.6824 13.9023 40.671 15.8852L101.274 46.0137C103.313 47.0276 104.603 49.1088 104.603 51.3864V117.172C104.603 121.627 99.9202 124.528 95.9316 122.545L35.329 92.4164C33.2895 91.4025 32 89.3213 32 87.0437V21.2579Z" fill="#FCFCFC"/>
<path d="M35.329 92.4164L35.6347 91.8015L35.329 92.4164ZM40.671 15.8852L40.9767 15.2703L40.671 15.8852ZM40.3653 16.5001L100.968 46.6286L101.579 45.3988L40.9767 15.2703L40.3653 16.5001ZM103.916 51.3864V117.172H105.289V51.3864H103.916ZM96.2373 121.93L35.6347 91.8015L35.0233 93.0313L95.626 123.16L96.2373 121.93ZM32.6867 87.0437V21.2579H31.3133V87.0437H32.6867ZM35.6347 91.8015C33.8286 90.9037 32.6867 89.0606 32.6867 87.0437H31.3133C31.3133 89.5819 32.7505 91.9013 35.0233 93.0313L35.6347 91.8015ZM103.916 117.172C103.916 121.117 99.7694 123.686 96.2373 121.93L95.626 123.16C100.071 125.37 105.289 122.136 105.289 117.172H103.916ZM100.968 46.6286C102.774 47.5264 103.916 49.3695 103.916 51.3864H105.289C105.289 48.8482 103.852 46.5288 101.579 45.3988L100.968 46.6286ZM40.9767 15.2703C36.5316 13.0605 31.3133 16.2938 31.3133 21.2579H32.6867C32.6867 17.3133 36.8332 14.7441 40.3653 16.5001L40.9767 15.2703Z" fill="black" mask="url(#path-2-inside-1_349_10037)"/>
<path d="M91.7604 66.9097L86.7207 66.9097L96.0802 113.509H101.521L108.245 101.323L123.595 104.61L91.7604 66.9097Z" fill="#0F244A"/>
<path d="M86 67.4886L95.7606 114.087L102.484 101.902L117.834 105.189L86 67.4886Z" fill="#5D90F1" stroke="black"/>
</svg>
