<svg width="140" height="140" viewBox="0 0 140 140" fill="none" xmlns="http://www.w3.org/2000/svg">
<g opacity="0.5">
<path d="M102.812 86.3313L102.812 120.621M102.812 86.3313C102.812 75.289 95.2257 61.9236 85.7733 56.177C85.6171 56.0821 61.9217 42.3991 61.7645 42.3083C52.0948 36.7255 44.256 41.2993 44.256 52.5241M102.812 86.3313C102.812 97.3538 95.253 101.963 85.8244 96.8391C85.6513 96.745 61.9388 83.0576 61.7645 82.9569C52.0948 77.3741 44.256 63.7489 44.256 52.5241M44.256 52.5241L44.256 18.5807" stroke="white" stroke-width="7.85579" stroke-linecap="round"/>
<path d="M60.8891 96.4165L59.2133 95.449C44.1838 86.7717 32 65.6688 32 48.3142L32 21.1078" stroke="white" stroke-width="7.85579" stroke-linecap="round"/>
<path d="M88.7828 43.7834L90.4586 44.7509C105.488 53.4282 117.672 74.5311 117.672 91.8857L117.672 118.081" stroke="white" stroke-width="7.85579" stroke-linecap="round"/>
</g>
<path d="M97.8118 87.3313L97.8118 121.621M97.8118 87.3313C97.8118 76.289 90.2257 62.9236 80.7733 57.177C80.6171 57.0821 56.9217 43.3991 56.7645 43.3083C47.0948 37.7255 39.256 42.2993 39.256 53.5241M97.8118 87.3313C97.8118 98.3538 90.253 102.963 80.8244 97.8391C80.6513 97.745 56.9388 84.0576 56.7645 83.9569C47.0948 78.3741 39.256 64.7489 39.256 53.5241M39.256 53.5241L39.256 19.5807" stroke="white" stroke-width="7.85579" stroke-linecap="round"/>
<path d="M55.8891 97.4165L54.2133 96.449C39.1838 87.7717 27 66.6688 27 49.3142L27 22.1078" stroke="white" stroke-width="7.85579" stroke-linecap="round"/>
<path d="M83.7828 44.7834L85.4586 45.7509C100.488 54.4282 112.672 75.5311 112.672 92.8857L112.672 119.081" stroke="white" stroke-width="7.85579" stroke-linecap="round"/>
<path d="M68.5 40C68.5 56.8447 56.6355 63.6723 42 55.25C56.6355 63.6723 68.5 84.1553 68.5 101C68.5 84.1553 80.3645 77.3277 95 85.75C80.3645 77.3277 68.5 56.8447 68.5 40Z" fill="#2C7158"/>
<path d="M57.9877 57.5335C61.7411 55.3735 64.3711 51.3886 65.4517 45.9336C66.4592 52.7579 69.0988 59.8441 72.829 66.284C76.5576 72.7211 81.392 78.5403 86.8143 82.8214C81.5379 81.0293 76.7637 81.3076 73.0123 83.4665C69.2589 85.6265 66.6289 89.6114 65.5483 95.0664C64.5408 88.2421 61.9012 81.1559 58.171 74.716C54.4424 68.2789 49.608 62.4597 44.1857 58.1786C49.4621 59.9707 54.2363 59.6924 57.9877 57.5335Z" fill="#4BBB93" stroke="black"/>
</svg>
