<svg width="140" height="140" viewBox="0 0 140 140" fill="none" xmlns="http://www.w3.org/2000/svg">
<g opacity="0.5">
<path d="M98.0644 72.2755C97.0718 65.8935 94.3633 59.0991 90.4017 53.0527C86.4401 47.0063 81.4712 42.0831 76.3435 39.1241C67.8029 34.1931 60.3853 35.5069 56.6913 41.5639C52.3478 39.5982 48.331 39.6554 45.4127 41.7245C42.4943 43.7936 40.8804 47.7287 40.8809 52.7736C40.8809 64.0687 48.8304 77.8377 58.6122 83.4852L97.0301 105.666C105.187 110.375 111.806 106.553 111.806 97.1348C111.806 88.1261 105.748 77.3259 98.0644 72.2755Z" fill="#FCFCFC"/>
<path d="M54.6716 17.5121L33 5L33 30.0243L40.2239 34.195L40.2239 17.5121L54.6716 25.8535L54.6716 17.5121Z" fill="#BBDF70"/>
<path d="M54.6716 96.3765L33 83.8644L33 58.8401L40.2239 63.0108L40.2239 79.6937L54.6716 88.0351L54.6716 96.3765Z" fill="#BBDF70"/>
<path d="M99.3284 43.2947L121 55.8068L121 80.8311L113.776 76.6604L113.776 59.9775L99.3284 51.6361L99.3284 43.2947Z" fill="#BBDF70"/>
<path d="M99.3284 122.159L121 134.671L121 109.647L113.776 105.476L113.776 122.159L99.3284 113.818L99.3284 122.159Z" fill="#BBDF70"/>
</g>
<path d="M92.0644 72.2755C91.0718 65.8935 88.3633 59.0991 84.4017 53.0527C80.4401 47.0063 75.4712 42.0831 70.3435 39.1241C61.8029 34.1931 54.3853 35.5069 50.6913 41.5639C46.3478 39.5982 42.331 39.6554 39.4127 41.7245C36.4943 43.7936 34.8804 47.7287 34.8809 52.7736C34.8809 64.0687 42.8304 77.8377 52.6122 83.4852L91.0301 105.666C99.1865 110.375 105.806 106.553 105.806 97.1348C105.806 88.1261 99.748 77.3259 92.0644 72.2755Z" fill="#FCFCFC"/>
<path d="M48.6716 17.5121L27 5L27 30.0243L34.2239 34.195L34.2239 17.5121L48.6716 25.8535L48.6716 17.5121Z" fill="#BBDF70"/>
<path d="M48.6716 96.3765L27 83.8644L27 58.8401L34.2239 63.0108L34.2239 79.6937L48.6716 88.0351L48.6716 96.3765Z" fill="#BBDF70"/>
<path d="M93.3284 43.2947L115 55.8068L115 80.8311L107.776 76.6604L107.776 59.9775L93.3284 51.6361L93.3284 43.2947Z" fill="#BBDF70"/>
<path d="M93.3284 122.159L115 134.671L115 109.647L107.776 105.476L107.776 122.159L93.3284 113.818L93.3284 122.159Z" fill="#BBDF70"/>
</svg>
