<svg width="440" height="521" viewBox="0 0 440 521" fill="none" xmlns="http://www.w3.org/2000/svg">
<path d="M155.813 142.561C192.472 121.44 216.247 78.2218 219.983 17.2285C223.607 82.6695 247.396 153.354 284.004 216.626C320.608 279.894 370.052 335.791 425.028 371.644C370.232 344.382 320.843 343.32 284.187 364.439C247.528 385.56 223.753 428.778 220.017 489.771C216.393 424.33 192.604 353.646 155.996 290.374C119.392 227.106 69.9477 171.209 14.972 135.357C69.7678 162.618 119.157 163.68 155.813 142.561Z" stroke="#424242"/>
<path opacity="0.3" d="M366.5 114C366.5 137.196 350.158 146.598 330 135C350.158 146.598 366.5 174.804 366.5 198C366.5 174.804 382.842 165.402 403 177C382.842 165.402 366.5 137.196 366.5 114Z" fill="#BBDF70"/>
<path d="M358.5 114C358.5 137.196 342.158 146.598 322 135C342.158 146.598 358.5 174.804 358.5 198C358.5 174.804 374.842 165.402 395 177C374.842 165.402 358.5 137.196 358.5 114Z" fill="#BBDF70"/>
<path opacity="0.3" d="M98.5 290C98.5 313.196 82.1584 322.598 62 311C82.1584 322.598 98.5 350.804 98.5 374C98.5 350.804 114.842 341.402 135 353C114.842 341.402 98.5 313.196 98.5 290Z" fill="#5D90F1"/>
<path d="M90.5 290C90.5 313.196 74.1584 322.598 54 311C74.1584 322.598 90.5 350.804 90.5 374C90.5 350.804 106.842 341.402 127 353C106.842 341.402 90.5 313.196 90.5 290Z" fill="#5D90F1"/>
<path d="M181.19 115.88C183.927 117.46 186.425 120.186 188.239 123.328C190.053 126.47 191.164 129.995 191.164 133.156V167.866C191.164 171.039 192.889 173.709 195.363 175.54C197.835 177.369 201.08 178.383 204.196 178.247C212.87 177.867 222.815 180.534 233.413 186.652C250.596 196.573 266.149 213.636 277.407 233.208C288.665 252.78 295.61 274.829 295.61 294.701L295.61 396.976C295.61 400.139 294.502 402.27 292.81 403.247C291.117 404.224 288.718 404.118 285.979 402.536C283.241 400.956 280.744 398.23 278.93 395.088C277.116 391.947 276.004 388.421 276.004 385.26V349.518C276.004 346.345 274.279 343.675 271.806 341.844C269.334 340.015 266.089 339.001 262.973 339.137C254.299 339.518 244.354 336.85 233.756 330.732C216.573 320.811 201.02 303.748 189.762 284.176C178.503 264.604 171.559 242.555 171.559 222.683L171.559 121.44C171.559 118.278 172.666 116.146 174.359 115.169C176.051 114.192 178.451 114.298 181.19 115.88ZM276.004 282.985C276.004 269.377 271.258 254.365 263.616 241.084C255.973 227.803 245.415 216.22 233.756 209.489C222.099 202.759 211.442 202.098 203.678 206.625C195.914 211.152 191.164 220.793 191.164 234.399C191.164 248.007 195.91 263.019 203.553 276.3C211.196 289.581 221.754 301.164 233.413 307.895C245.07 314.625 255.727 315.286 263.491 310.759C271.255 306.232 276.004 296.591 276.004 282.985ZM144.635 123.418C147.372 124.999 149.869 127.724 151.683 130.866C153.497 134.008 154.609 137.534 154.609 140.695L154.609 221.843C154.609 244.564 162.582 269.715 175.457 292.015C188.332 314.315 206.127 333.795 225.804 345.156L230.802 348.042C233.539 349.622 236.037 352.348 237.851 355.49C239.665 358.632 240.777 362.157 240.777 365.318C240.777 368.481 239.669 370.612 237.977 371.589C236.284 372.566 233.885 372.46 231.145 370.879L226.147 367.993C200.996 353.471 178.206 328.539 161.703 299.956C145.2 271.373 135.003 239.17 135.003 210.128L135.003 128.979C135.003 125.816 136.111 123.685 137.804 122.708C139.496 121.73 141.895 121.837 144.635 123.418ZM322.536 390.48C319.799 388.899 317.301 386.174 315.487 383.032C313.673 379.89 312.562 376.364 312.562 373.204V295.07C312.562 272.349 304.588 247.198 291.713 224.898C278.839 202.598 261.044 183.118 241.367 171.757L236.368 168.871C233.631 167.291 231.134 164.565 229.32 161.423C227.506 158.282 226.394 154.756 226.394 151.595C226.394 148.432 227.502 146.301 229.194 145.324C230.887 144.347 233.286 144.453 236.025 146.035L241.024 148.92C266.175 163.442 288.965 188.374 305.468 216.957C321.97 245.541 332.167 277.743 332.167 306.786L332.167 384.919C332.167 388.082 331.06 390.213 329.367 391.191C327.675 392.168 325.275 392.061 322.536 390.48Z" fill="#5C5C5C" stroke="black" stroke-width="0.686656"/>
<path d="M136.719 148.891C136.025 150.481 135.428 151.957 135.003 153.243L135.003 128.979C135.003 125.816 136.111 123.685 137.804 122.708C139.496 121.73 141.895 121.837 144.635 123.418C145.208 123.749 145.539 124.352 145.638 125.257C145.737 126.168 145.592 127.339 145.252 128.712C144.572 131.456 143.141 134.897 141.522 138.466C140.846 139.957 140.136 141.473 139.436 142.965C138.47 145.027 137.524 147.045 136.719 148.891ZM135.003 210.128L135.003 181.043L136.347 228.999C135.464 222.609 135.003 216.297 135.003 210.128ZM145.59 267.489C141.018 258.253 138.071 248.696 137.355 238.989C139.273 248.466 142.057 258.034 145.59 267.489ZM161.703 299.956C157.447 292.585 153.611 284.973 150.261 277.237C154.837 284.568 160.342 291.638 166.445 298.352C183.855 317.507 206.169 333.82 225.804 345.156L230.802 348.042C233.539 349.622 236.037 352.348 237.851 355.49C239.665 358.632 240.777 362.157 240.777 365.318C240.777 368.481 239.669 370.612 237.977 371.589C236.284 372.566 233.885 372.46 231.145 370.879L226.147 367.993C200.996 353.471 178.206 328.539 161.703 299.956ZM236.564 149.511L240.718 171.383L236.368 168.871C233.631 167.291 231.134 164.565 229.32 161.423C227.506 158.282 226.394 154.756 226.394 151.595C226.394 149.132 227.068 147.292 228.162 146.14C229.248 144.998 230.787 144.493 232.625 144.769C234.778 145.092 236.127 147.209 236.564 149.511ZM291.713 224.898C281.766 207.668 268.881 192.121 254.46 180.702C298.455 210.097 332.167 253.986 332.167 306.786L332.167 384.919C332.167 388.082 331.06 390.213 329.367 391.191C327.675 392.168 325.275 392.061 322.536 390.48C319.799 388.899 317.301 386.174 315.487 383.032C313.673 379.89 312.562 376.364 312.562 373.204V295.07C312.562 272.349 304.588 247.198 291.713 224.898ZM181.19 115.88C183.927 117.46 186.425 120.186 188.239 123.328C190.053 126.47 191.164 129.995 191.164 133.156V167.866C191.164 171.039 193.036 174.017 195.526 176.536C198.024 179.061 201.192 181.172 203.892 182.615C207.693 184.646 211.71 187.784 216.063 191.184L216.347 191.406C220.799 194.883 225.589 198.602 230.802 201.612C265.253 221.502 295.61 254.988 295.61 294.701L295.61 396.976C295.61 400.139 294.502 402.27 292.81 403.247C291.117 404.224 288.718 404.118 285.979 402.536C283.241 400.956 280.744 398.23 278.93 395.088C277.116 391.947 276.004 388.421 276.004 385.26V349.518C276.004 346.345 274.279 343.675 271.806 341.844C269.334 340.015 266.089 339.001 262.973 339.137C254.299 339.518 244.354 336.85 233.756 330.732C216.573 320.811 201.02 303.748 189.762 284.176C180.091 267.364 173.603 248.724 171.966 231.207C173.062 235.794 174.937 240.662 177.392 245.64C181.441 253.85 187.077 262.384 193.434 270.483C206.144 286.674 221.768 301.172 233.413 307.895C245.07 314.625 255.727 315.286 263.491 310.759C271.255 306.232 276.004 296.591 276.004 282.985C276.004 269.377 271.258 254.365 263.616 241.084C255.973 227.803 245.415 216.22 233.756 209.489C222.104 202.762 206.438 199.199 193.664 200.723C187.275 201.485 181.578 203.524 177.474 207.108C174.63 209.591 172.564 212.805 171.559 216.817L171.559 121.44C171.559 118.278 172.666 116.146 174.359 115.169C176.051 114.192 178.451 114.298 181.19 115.88Z" fill="#404040" stroke="black" stroke-width="0.686656"/>
<path fill-rule="evenodd" clip-rule="evenodd" d="M165.701 115.583C171.305 118.818 175.848 126.686 175.848 133.156V181.003C186.932 175.643 201.695 176.985 217.924 186.355C252.42 206.271 280.293 254.809 280.293 294.701L280.293 396.976C280.293 403.446 275.751 406.069 270.147 402.834C264.543 399.598 260.001 391.73 260.001 385.26V336.382C248.916 341.741 234.153 340.399 217.924 331.029C183.428 311.113 155.555 262.576 155.555 222.683L155.555 121.44C155.555 114.97 160.098 112.347 165.701 115.583ZM260.001 282.985C260.001 255.917 241.112 223.174 217.924 209.786C194.736 196.399 175.848 207.331 175.848 234.399C175.848 261.467 194.736 294.21 217.924 307.598C241.112 320.985 260.001 310.053 260.001 282.985Z" fill="white"/>
<path fill-rule="evenodd" clip-rule="evenodd" d="M129.146 123.121C134.75 126.356 139.292 134.224 139.292 140.695L139.292 221.843C139.292 267.136 171.09 322.212 210.315 344.859L215.314 347.744C220.917 350.98 225.46 358.848 225.46 365.318C225.46 371.788 220.917 374.411 215.314 371.176L210.315 368.29C159.883 339.173 119 268.361 119 210.128L119 128.979C119 122.508 123.543 119.886 129.146 123.121Z" fill="white"/>
<path fill-rule="evenodd" clip-rule="evenodd" d="M306.704 390.777C301.101 387.542 296.558 379.674 296.558 373.204V295.07C296.558 249.777 264.76 194.701 225.535 172.055L220.537 169.169C214.933 165.934 210.391 158.066 210.391 151.595C210.391 145.125 214.933 142.502 220.537 145.737L225.535 148.623C275.967 177.74 316.85 248.552 316.85 306.786L316.85 384.919C316.85 391.39 312.308 394.012 306.704 390.777Z" fill="white"/>
<g opacity="0.3" clip-path="url(#clip0_353_10043)">
<path d="M367.06 457.567C367.06 446.961 374.466 442.64 383.603 447.915C392.739 453.19 400.146 466.064 400.146 476.67M367.06 457.567C367.06 468.173 374.466 481.047 383.603 486.322C392.739 491.597 400.146 487.276 400.146 476.67M367.06 457.567L367.06 425.168M400.146 476.67L400.146 508.742" stroke="#5AAC8F" stroke-width="7.42271" stroke-linecap="round"/>
<path d="M382.776 498.714L381.193 497.8C366.992 489.601 355.48 469.661 355.48 453.263L355.48 427.557" stroke="#5AAC8F" stroke-width="7.42271" stroke-linecap="round"/>
<path d="M384.43 434.72L386.014 435.634C400.215 443.833 411.727 463.773 411.727 480.171L411.727 504.922" stroke="#5AAC8F" stroke-width="7.42271" stroke-linecap="round"/>
</g>
<g clip-path="url(#clip1_353_10043)">
<path d="M361.544 457.567C361.544 446.961 368.951 442.64 378.087 447.915C387.224 453.19 394.63 466.064 394.63 476.67M361.544 457.567C361.544 468.173 368.951 481.047 378.087 486.322C387.224 491.597 394.63 487.276 394.63 476.67M361.544 457.567L361.544 425.168M394.63 476.67L394.63 508.742" stroke="#5AAC8F" stroke-width="7.42271" stroke-linecap="round"/>
<path d="M377.26 498.714L375.677 497.8C361.476 489.601 349.964 469.661 349.964 453.263L349.964 427.557" stroke="#5AAC8F" stroke-width="7.42271" stroke-linecap="round"/>
<path d="M378.915 434.72L380.498 435.634C394.699 443.833 406.211 463.773 406.211 480.171L406.211 504.922" stroke="#5AAC8F" stroke-width="7.42271" stroke-linecap="round"/>
</g>
<g opacity="0.3" clip-path="url(#clip2_353_10043)">
<path d="M70.385 48.2883C71.5493 59.573 79.9832 71.9498 89.2227 75.9326C92.3431 77.2777 95.1563 77.4934 97.469 76.7544M70.385 48.2883C69.2207 37.0036 75.7668 31.0842 85.0063 35.067C87.8317 36.2849 90.5818 38.2879 93.0717 40.8045M70.385 48.2883L68.5911 30.9015M93.0717 40.8045C98.7241 46.5174 103.036 54.8775 103.844 62.7113C104.615 70.1849 102.004 75.3052 97.469 76.7544M93.0717 40.8045L105.633 54.1475M97.469 76.7544L86.6203 80.0063" stroke="#61CFC9" stroke-width="7.52633" stroke-linecap="round"/>
<path d="M71.5542 20.8267C73.9381 20.4334 79.4212 20.0598 87.0498 24.4642C94.6784 28.8686 101.751 36.491 103.737 39.4076" stroke="#61CFC9" stroke-width="7.52633" stroke-linecap="round"/>
<path d="M115.232 67.2794C115.368 70.8443 115.281 78.5304 111.466 84.4657C107.652 90.401 101.461 92.4833 99.1409 92.3189" stroke="#61CFC9" stroke-width="7.52633" stroke-linecap="round"/>
<path d="M59.4431 35.0692C59.3078 38.4779 59.3949 46.2647 63.2092 56.6044C67.0235 66.944 73.2141 76.1747 75.5346 78.6897" stroke="#61CFC9" stroke-width="7.52633" stroke-linecap="round"/>
</g>
<g clip-path="url(#clip3_353_10043)">
<path d="M64.8689 48.2884C66.0332 59.5732 74.4671 71.9499 83.7065 75.9328C86.827 77.2779 89.6402 77.4935 91.9529 76.7545M64.8689 48.2884C63.7045 37.0037 70.2507 31.0843 79.4901 35.0671C82.3156 36.2851 85.0657 38.288 87.5556 40.8046M64.8689 48.2884L63.075 30.9016M87.5556 40.8046C93.208 46.5175 97.5195 54.8776 98.3278 62.7115C99.0989 70.185 96.4882 75.3053 91.9529 76.7545M87.5556 40.8046L100.117 54.1477M91.9529 76.7545L81.1042 80.0064" stroke="#61CFC9" stroke-width="7.52633" stroke-linecap="round"/>
<path d="M66.0388 20.8268C68.4228 20.4335 73.9058 20.06 81.5344 24.4643C89.163 28.8687 96.2354 36.4912 98.222 39.4078" stroke="#61CFC9" stroke-width="7.52633" stroke-linecap="round"/>
<path d="M109.717 67.2794C109.852 70.8443 109.765 78.5304 105.951 84.4657C102.136 90.401 95.9458 92.4833 93.6253 92.3189" stroke="#61CFC9" stroke-width="7.52633" stroke-linecap="round"/>
<path d="M53.9274 35.0694C53.7922 38.4781 53.8793 46.2648 57.6936 56.6045C61.5079 66.9442 67.6985 76.1748 70.019 78.6898" stroke="#61CFC9" stroke-width="7.52633" stroke-linecap="round"/>
</g>
<defs>
<clipPath id="clip0_353_10043">
<rect width="73.0069" height="73.0069" fill="white" transform="matrix(0.866025 0.5 -2.20305e-08 1 351.516 411)"/>
</clipPath>
<clipPath id="clip1_353_10043">
<rect width="73.0069" height="73.0069" fill="white" transform="matrix(0.866025 0.5 -2.20305e-08 1 346 411)"/>
</clipPath>
<clipPath id="clip2_353_10043">
<rect width="73.0069" height="73.0069" fill="white" transform="matrix(0.866025 0.5 -2.20305e-08 1 55.5156 0)"/>
</clipPath>
<clipPath id="clip3_353_10043">
<rect width="73.0069" height="73.0069" fill="white" transform="matrix(0.866025 0.5 -2.20305e-08 1 50 0)"/>
</clipPath>
</defs>
</svg>
