<svg width="47" height="56" viewBox="0 0 47 56" fill="none" xmlns="http://www.w3.org/2000/svg">
<path opacity="0.6" d="M14.0304 0.80591L14.0309 0.805729L14.0718 0.791058L14.0724 0.790845C17.5864 -0.486577 22.0951 0.112754 27.0348 2.96469C32.7311 6.25348 37.6856 11.9032 41.2165 18.3858C44.7473 24.8681 46.8473 32.1701 46.8473 38.7527C46.8473 42.8786 46.0452 46.2204 44.5661 48.6625C43.0893 51.1008 40.9344 52.6486 38.2078 53.1897C37.8711 53.2566 37.3693 53.3961 36.7898 53.5617C36.678 53.5936 36.5632 53.6266 36.4458 53.6603C35.9518 53.8021 35.4133 53.9567 34.8707 54.1016C34.1991 54.2811 33.5248 54.4447 32.9262 54.5501C32.3235 54.6562 31.8127 54.7003 31.4613 54.6501C30.9221 54.5731 30.5568 54.383 30.2689 54.123C29.9763 53.8586 29.7574 53.517 29.5184 53.1197C29.4929 53.0774 29.4673 53.0346 29.4414 52.9913C28.9832 52.2252 28.4399 51.3168 27.1876 50.5938C21.4894 47.304 16.3222 41.6526 12.5791 35.1693C8.836 28.6861 6.52537 21.3854 6.52537 14.8058C6.52537 12.4431 6.0384 10.531 5.63755 8.95712C5.52408 8.51162 5.41752 8.09321 5.33085 7.69933C5.13319 6.80106 5.04039 6.03964 5.1822 5.36201C5.32226 4.69275 5.69491 4.08938 6.46368 3.51467C6.54449 3.45426 6.70478 3.36952 6.93892 3.26498C7.16923 3.16216 7.45978 3.045 7.79241 2.91849C8.45746 2.66555 9.28462 2.37755 10.1219 2.09537C11.0034 1.79834 11.8987 1.50694 12.6242 1.27085C13.2723 1.0599 13.7848 0.893114 14.0304 0.80591Z" fill="#AFAFAF" stroke="black" stroke-width="0.305505"/>
<path d="M41.3244 40.5129C41.3244 47.0935 39.0156 51.6768 35.3266 53.8066C31.6375 55.9365 26.5139 55.6443 20.8149 52.354C15.1168 49.0642 9.94956 43.4128 6.20647 36.9296C2.46338 30.4464 0.152752 23.1457 0.152753 16.5661C0.152753 9.98547 2.46154 5.40218 6.15056 3.27233C9.83958 1.14247 14.9632 1.43465 20.6622 4.72495C26.3603 8.01475 31.5276 13.6662 35.2707 20.1494C39.0137 26.6326 41.3244 33.9333 41.3244 40.5129Z" fill="#FCFCFC" stroke="black" stroke-width="0.305505"/>
<path d="M25 36.8891C25 33.1214 23.1191 30.6947 19.3572 27.8849C16.6709 25.8325 16.1346 24.6484 16.1346 23.1406C16.1346 21.6328 17.031 21.2053 18.8208 22.2856C20.4328 23.2586 21.3292 24.4453 21.7759 26.3309C21.8225 26.5153 21.9076 26.702 22.0198 26.8658C22.132 27.0296 22.2659 27.1627 22.4034 27.2471L23.8362 28.1119C23.9189 28.1645 24.0013 28.1966 24.0782 28.2061C24.1551 28.2157 24.225 28.2025 24.2837 28.1674C24.3424 28.1323 24.3886 28.0761 24.4195 28.002C24.4504 27.928 24.4655 27.8377 24.4636 27.7367V27.6303C24.2885 26.3555 23.7985 24.993 23.0696 23.7547C22.3407 22.5164 21.4138 21.4714 20.4328 20.7822V18.1995C20.4328 17.7684 20.1639 17.2833 19.7172 16.9054L18.3726 16.0939C18.0155 15.8784 17.7466 16.0389 17.657 16.5241V19.0004C14.9693 17.8075 13.2691 18.9348 13.2691 21.6275C13.2691 25.1788 15.0589 27.6587 18.8208 30.4685C21.3292 32.52 22.1345 33.6535 22.1345 35.376C22.1345 37.0966 20.881 37.525 19.1794 36.4979C16.8502 35.0921 16.0449 33.4229 15.776 31.6446C15.6878 31.1621 15.4175 30.7825 15.1485 30.6202L13.6261 29.7013C13.5435 29.649 13.4613 29.6172 13.3846 29.6079C13.3078 29.5986 13.2381 29.6119 13.1796 29.6471C13.121 29.6822 13.075 29.7385 13.0441 29.8124C13.0133 29.8864 12.9983 29.9765 13.0001 30.0774V30.1838C13.3572 33.0921 14.7915 35.8948 17.7466 38.2177V40.8022C17.7466 41.2315 18.0155 41.7185 18.4622 42.0945L19.8068 42.9061C20.1639 43.1216 20.4328 42.9611 20.5225 42.4777V39.8914C23.2102 40.9761 25 39.7947 25 36.8873V36.8891Z" fill="#050505"/>
</svg>
