<svg width="330" height="345" viewBox="0 0 330 345" fill="none" xmlns="http://www.w3.org/2000/svg">
<g opacity="0.2">
<path fill-rule="evenodd" clip-rule="evenodd" d="M232.887 146.943C237.259 149.467 237.258 153.559 232.887 156.083L150.708 204.658C167.3 205.064 183.669 208.912 196.33 216.222C223.241 231.759 223.065 256.969 196.113 272.529L90.8708 337.35C86.4993 339.874 79.4117 339.874 75.0402 337.35C70.6688 334.826 70.6688 330.734 75.0403 328.21L144.207 284.218C127.615 283.812 111.246 279.964 98.5855 272.654C71.6744 257.117 71.8503 231.907 98.8021 216.347L217.056 146.943C221.428 144.42 228.516 144.42 232.887 146.943ZM180.283 263.39C198.57 252.831 198.588 235.806 180.499 225.362C162.41 214.918 132.92 214.928 114.633 225.487C96.3448 236.045 96.3269 253.071 114.416 263.515C132.506 273.958 161.995 273.948 180.283 263.39Z" fill="white"/>
<path fill-rule="evenodd" clip-rule="evenodd" d="M135.164 171.563C139.535 174.087 139.535 178.179 135.164 180.703L80.3385 212.357C49.7379 230.024 49.7376 258.668 80.3378 276.335L84.2372 278.586C88.6087 281.11 88.6087 285.202 84.2371 287.726C79.8656 290.25 72.778 290.25 68.4066 287.726L64.5072 285.475C25.1639 262.76 25.1643 225.932 64.508 203.217L119.333 171.563C123.705 169.039 130.792 169.039 135.164 171.563Z" fill="white"/>
<path fill-rule="evenodd" clip-rule="evenodd" d="M162.108 315.953C157.736 313.429 157.736 309.337 162.108 306.813L214.896 276.336C245.497 258.668 245.497 230.024 214.897 212.357L210.998 210.106C206.626 207.582 206.626 203.49 210.998 200.966C215.369 198.442 222.457 198.442 226.828 200.966L230.728 203.217C270.071 225.932 270.07 262.76 230.727 285.475L177.938 315.953C173.567 318.477 166.479 318.477 162.108 315.953Z" fill="white"/>
</g>
<path fill-rule="evenodd" clip-rule="evenodd" d="M232.887 131.893C237.259 134.417 237.258 138.509 232.887 141.032L150.708 189.608C167.3 190.013 183.669 193.861 196.33 201.171C223.241 216.708 223.065 241.918 196.113 257.479L90.8708 322.299C86.4993 324.823 79.4117 324.823 75.0402 322.299C70.6688 319.775 70.6688 315.683 75.0403 313.16L144.207 269.167C127.615 268.761 111.246 264.913 98.5855 257.604C71.6744 242.066 71.8503 216.857 98.8021 201.296L217.056 131.893C221.428 129.369 228.516 129.369 232.887 131.893ZM180.283 248.339C198.57 237.78 198.588 220.755 180.499 210.311C162.41 199.867 132.92 199.877 114.633 210.436C96.3448 220.994 96.3269 238.02 114.416 248.464C132.506 258.908 161.995 258.897 180.283 248.339Z" fill="white"/>
<path fill-rule="evenodd" clip-rule="evenodd" d="M135.164 156.513C139.535 159.036 139.535 163.128 135.164 165.652L80.3385 197.306C49.7379 214.973 49.7376 243.617 80.3378 261.284L84.2372 263.536C88.6087 266.059 88.6087 270.151 84.2371 272.675C79.8656 275.199 72.778 275.199 68.4066 272.675L64.5072 270.424C25.1639 247.709 25.1643 210.881 64.508 188.166L119.333 156.513C123.705 153.989 130.792 153.989 135.164 156.513Z" fill="white"/>
<path fill-rule="evenodd" clip-rule="evenodd" d="M162.108 300.902C157.736 298.378 157.736 294.286 162.108 291.762L214.896 261.285C245.497 243.618 245.497 214.973 214.897 197.306L210.998 195.055C206.626 192.531 206.626 188.439 210.998 185.915C215.369 183.391 222.457 183.391 226.828 185.915L230.728 188.166C270.071 210.881 270.07 247.71 230.727 270.425L177.938 300.902C173.567 303.426 166.479 303.426 162.108 300.902Z" fill="white"/>
<mask id="path-3-inside-1_297_17469" fill="white">
<path fill-rule="evenodd" clip-rule="evenodd" d="M161.139 213.957C224.49 250.533 275.847 238.575 275.847 187.249C275.847 135.923 224.49 64.6646 161.139 28.0887C97.788 -8.48711 46.4316 3.47034 46.4316 54.7965C46.4316 106.123 97.788 177.381 161.139 213.957ZM118.641 112.121C126.118 116.438 132.18 112.938 132.18 104.304C132.18 95.6694 126.118 85.1702 118.641 80.853C111.163 76.5359 105.102 80.0356 105.102 88.6699C105.102 97.3042 111.163 107.803 118.641 112.121ZM175.807 129.491C175.807 138.126 169.914 141.723 162.644 137.525C155.374 133.328 149.481 122.926 149.481 114.292C149.481 105.658 155.374 102.061 162.644 106.258C169.914 110.455 175.807 120.857 175.807 129.491ZM206.647 162.93C214.124 167.247 220.186 163.747 220.186 155.113C220.186 146.478 214.124 135.979 206.647 131.662C199.169 127.345 193.107 130.845 193.107 139.479C193.107 148.113 199.169 158.613 206.647 162.93Z"/>
</mask>
<path fill-rule="evenodd" clip-rule="evenodd" d="M161.139 213.957C224.49 250.533 275.847 238.575 275.847 187.249C275.847 135.923 224.49 64.6646 161.139 28.0887C97.788 -8.48711 46.4316 3.47034 46.4316 54.7965C46.4316 106.123 97.788 177.381 161.139 213.957ZM118.641 112.121C126.118 116.438 132.18 112.938 132.18 104.304C132.18 95.6694 126.118 85.1702 118.641 80.853C111.163 76.5359 105.102 80.0356 105.102 88.6699C105.102 97.3042 111.163 107.803 118.641 112.121ZM175.807 129.491C175.807 138.126 169.914 141.723 162.644 137.525C155.374 133.328 149.481 122.926 149.481 114.292C149.481 105.658 155.374 102.061 162.644 106.258C169.914 110.455 175.807 120.857 175.807 129.491ZM206.647 162.93C214.124 167.247 220.186 163.747 220.186 155.113C220.186 146.478 214.124 135.979 206.647 131.662C199.169 127.345 193.107 130.845 193.107 139.479C193.107 148.113 199.169 158.613 206.647 162.93Z" fill="#5C5C5C"/>
<path d="M275.252 186.906C275.252 212.284 262.556 228 241.908 232.807C221.262 237.614 192.707 231.496 161.139 213.27L161.139 214.644C192.922 232.994 221.722 239.185 242.591 234.326C263.459 229.467 276.441 213.541 276.441 187.593L275.252 186.906ZM161.139 28.7754C192.707 47.0014 221.262 73.855 241.908 102.503C262.556 131.153 275.252 161.528 275.252 186.906L276.441 187.593C276.441 161.645 263.459 130.728 242.591 101.773C221.722 72.8156 192.922 45.752 161.139 27.4021L161.139 28.7754ZM47.0263 55.1398C47.0263 29.7616 59.7221 14.0462 80.3703 9.23866C101.017 4.43149 129.571 10.5494 161.139 28.7754L161.139 27.4021C129.356 9.05219 100.557 2.86094 79.6872 7.72007C58.8194 12.5788 45.837 28.5052 45.837 54.4531L47.0263 55.1398ZM161.139 213.27C129.571 195.044 101.017 168.191 80.3703 139.543C59.7221 110.893 47.0263 80.518 47.0263 55.1398L45.837 54.4531C45.837 80.401 58.8194 111.318 79.6872 140.273C100.557 169.23 129.356 196.294 161.139 214.644L161.139 213.27ZM131.585 103.96C131.585 112.215 125.79 115.561 118.641 111.434L118.641 112.807C126.447 117.314 132.775 113.661 132.775 104.647L131.585 103.96ZM118.641 81.5397C125.79 85.6672 131.585 95.7053 131.585 103.96L132.775 104.647C132.775 95.6335 126.447 84.6731 118.641 80.1664L118.641 81.5397ZM105.696 89.0132C105.696 80.7582 111.492 77.4121 118.641 81.5397L118.641 80.1664C110.835 75.6596 104.507 79.3131 104.507 88.3266L105.696 89.0132ZM118.641 111.434C111.492 107.306 105.696 97.2683 105.696 89.0132L104.507 88.3266C104.507 97.3401 110.835 108.3 118.641 112.807L118.641 111.434ZM162.644 138.212C170.258 142.608 176.402 138.83 176.402 129.835L175.212 129.148C175.212 137.422 169.569 140.837 162.644 136.839L162.644 138.212ZM148.886 113.949C148.886 122.944 155.03 133.816 162.644 138.212L162.644 136.839C155.718 132.84 150.075 122.909 150.075 114.635L148.886 113.949ZM162.644 105.571C155.03 101.175 148.886 104.953 148.886 113.949L150.075 114.635C150.075 106.362 155.718 102.946 162.644 106.945L162.644 105.571ZM176.402 129.835C176.402 120.84 170.258 109.967 162.644 105.571L162.644 106.945C169.569 110.943 175.212 120.875 175.212 129.148L176.402 129.835ZM219.591 154.769C219.591 163.025 213.796 166.371 206.647 162.243L206.647 163.616C214.453 168.123 220.781 164.47 220.781 155.456L219.591 154.769ZM206.647 132.349C213.796 136.476 219.591 146.514 219.591 154.769L220.781 155.456C220.781 146.443 214.453 135.482 206.647 130.975L206.647 132.349ZM193.702 139.822C193.702 131.567 199.498 128.221 206.647 132.349L206.647 130.975C198.841 126.469 192.513 130.122 192.513 139.136L193.702 139.822ZM206.647 162.243C199.498 158.115 193.702 148.077 193.702 139.822L192.513 139.136C192.513 148.149 198.841 159.11 206.647 163.616L206.647 162.243Z" fill="black" mask="url(#path-3-inside-1_297_17469)"/>
<path d="M36.2773 139.262C59.971 123.846 59.5949 107.126 52.0731 84.9783L106.982 170.53C65.9885 138.177 55.458 140.782 36.2773 139.262Z" fill="white"/>
<mask id="path-6-inside-2_297_17469" fill="white">
<path fill-rule="evenodd" clip-rule="evenodd" d="M145.862 213.957C209.213 250.533 260.569 238.575 260.569 187.249C260.569 135.923 209.213 64.6644 145.862 28.0885C82.5106 -8.48735 31.1543 3.4701 31.1543 54.7962C31.1543 106.122 82.5106 177.381 145.862 213.957ZM103.363 112.12C110.841 116.437 116.903 112.938 116.903 104.303C116.903 95.6691 110.841 85.1699 103.363 80.8528C95.8859 76.5356 89.8242 80.0354 89.8242 88.6697C89.8242 97.304 95.8859 107.803 103.363 112.12ZM160.529 129.491C160.529 138.125 154.636 141.722 147.366 137.525C140.096 133.328 134.203 122.926 134.203 114.291C134.203 105.657 140.096 102.06 147.366 106.257C154.636 110.454 160.529 120.856 160.529 129.491ZM191.369 162.93C198.847 167.247 204.909 163.747 204.909 155.113C204.909 146.478 198.847 135.979 191.369 131.662C183.892 127.345 177.83 130.845 177.83 139.479C177.83 148.113 183.892 158.613 191.369 162.93Z"/>
</mask>
<path fill-rule="evenodd" clip-rule="evenodd" d="M145.862 213.957C209.213 250.533 260.569 238.575 260.569 187.249C260.569 135.923 209.213 64.6644 145.862 28.0885C82.5106 -8.48735 31.1543 3.4701 31.1543 54.7962C31.1543 106.122 82.5106 177.381 145.862 213.957ZM103.363 112.12C110.841 116.437 116.903 112.938 116.903 104.303C116.903 95.6691 110.841 85.1699 103.363 80.8528C95.8859 76.5356 89.8242 80.0354 89.8242 88.6697C89.8242 97.304 95.8859 107.803 103.363 112.12ZM160.529 129.491C160.529 138.125 154.636 141.722 147.366 137.525C140.096 133.328 134.203 122.926 134.203 114.291C134.203 105.657 140.096 102.06 147.366 106.257C154.636 110.454 160.529 120.856 160.529 129.491ZM191.369 162.93C198.847 167.247 204.909 163.747 204.909 155.113C204.909 146.478 198.847 135.979 191.369 131.662C183.892 127.345 177.83 130.845 177.83 139.479C177.83 148.113 183.892 158.613 191.369 162.93Z" fill="white"/>
<path d="M259.975 186.906C259.975 212.284 247.279 227.999 226.631 232.807C205.984 237.614 177.43 231.496 145.862 213.27L145.862 214.643C177.645 232.993 206.444 239.185 227.314 234.325C248.182 229.467 261.164 213.54 261.164 187.592L259.975 186.906ZM145.862 28.7752C177.43 47.0011 205.984 73.8548 226.631 102.502C247.279 131.152 259.975 161.528 259.975 186.906L261.164 187.592C261.164 161.645 248.182 130.727 227.314 101.773C206.444 72.8153 177.645 45.7517 145.862 27.4018L145.862 28.7752ZM31.749 55.1395C31.749 29.7613 44.4447 14.046 65.0929 9.23841C85.7393 4.43125 114.294 10.5492 145.862 28.7752L145.862 27.4018C114.079 9.05194 85.2794 2.8607 64.4098 7.71983C43.542 12.5785 30.5596 28.505 30.5596 54.4529L31.749 55.1395ZM145.862 213.27C114.294 195.044 85.7393 168.191 65.0929 139.543C44.4447 110.893 31.749 80.5178 31.749 55.1395L30.5596 54.4529C30.5596 80.4008 43.542 111.318 64.4098 140.273C85.2794 169.23 114.079 196.294 145.862 214.643L145.862 213.27ZM116.308 103.96C116.308 112.215 110.513 115.561 103.363 111.434L103.363 112.807C111.169 117.314 117.497 113.66 117.497 104.647L116.308 103.96ZM103.363 81.5394C110.513 85.667 116.308 95.705 116.308 103.96L117.497 104.647C117.497 95.6332 111.169 84.6729 103.363 80.1661L103.363 81.5394ZM90.4189 89.013C90.4189 80.7579 96.2144 77.4119 103.363 81.5394L103.363 80.1661C95.5575 75.6594 89.2296 79.3128 89.2296 88.3263L90.4189 89.013ZM103.363 111.434C96.2144 107.306 90.4189 97.2681 90.4189 89.013L89.2296 88.3263C89.2296 97.3399 95.5575 108.3 103.363 112.807L103.363 111.434ZM147.366 138.211C154.98 142.607 161.124 138.829 161.124 129.834L159.935 129.147C159.935 137.421 154.292 140.837 147.366 136.838L147.366 138.211ZM133.608 113.948C133.608 122.943 139.752 133.816 147.366 138.211L147.366 136.838C140.441 132.84 134.798 122.908 134.798 114.635L133.608 113.948ZM147.366 105.571C139.752 101.175 133.608 104.953 133.608 113.948L134.798 114.635C134.798 106.361 140.441 102.945 147.366 106.944L147.366 105.571ZM161.124 129.834C161.124 120.839 154.98 109.966 147.366 105.571L147.366 106.944C154.292 110.942 159.935 120.874 159.935 129.147L161.124 129.834ZM204.314 154.769C204.314 163.025 198.519 166.371 191.369 162.243L191.369 163.616C199.175 168.123 205.503 164.47 205.503 155.456L204.314 154.769ZM191.369 132.349C198.519 136.476 204.314 146.514 204.314 154.769L205.503 155.456C205.503 146.443 199.175 135.482 191.369 130.975L191.369 132.349ZM178.425 139.822C178.425 131.567 184.22 128.221 191.369 132.349L191.369 130.975C183.563 126.469 177.236 130.122 177.236 139.136L178.425 139.822ZM191.369 162.243C184.22 158.115 178.425 148.077 178.425 139.822L177.236 139.136C177.236 148.149 183.563 159.11 191.369 163.616L191.369 162.243Z" fill="black" mask="url(#path-6-inside-2_297_17469)"/>
<path d="M21 139.262C44.6937 123.845 44.3176 107.126 36.7958 84.9779L91.705 170.529C50.7111 138.176 40.1806 140.782 21 139.262Z" fill="white"/>
<path d="M246.737 256.677L226.393 244.931L226.393 221.44L281.551 189.592L301.896 224.831L246.737 256.677ZM302.316 224.588L281.971 189.35L302.233 177.65L322.58 212.889L302.316 224.588Z" fill="#364021" stroke="black" stroke-width="0.686656"/>
<path d="M213 245.103L233.765 257.091L289.221 225.074L268.455 189.107L213 221.126L213 245.103Z" fill="#BBDF70"/>
<path d="M309.905 213.132L289.138 177.165L268.455 189.107L289.221 225.074L309.905 213.132Z" fill="#BBDF70"/>
<path d="M268.293 188.826L268.455 189.107M289.384 225.356L289.221 225.074M289.221 225.074L233.765 257.091L213 245.103L213 221.126L268.455 189.107M289.221 225.074L268.455 189.107M289.221 225.074L309.905 213.132L289.138 177.165L268.455 189.107" stroke="#050505" stroke-linecap="round" stroke-linejoin="round"/>
</svg>
