<svg width="42" height="72" viewBox="0 0 42 72" fill="none" xmlns="http://www.w3.org/2000/svg">
<g clip-path="url(#clip0_528_10579)">
<path d="M17.163 48.0514C16.3779 48.9791 14.9758 49.1112 13.5176 48.3321L6.1147 44.0581C4.48828 43.119 3.8153 41.475 4.65655 40.3913L19.4064 19.8424C20.1915 18.7263 21.5376 19.5034 22.3227 21.5261L23.4444 24.4336L26.0803 31.1658C26.7533 33.0609 26.7533 34.8186 26.0803 35.8739L17.163 48.0514ZM35.7266 61.1545L25.5194 55.2614C23.893 54.3224 23.2201 52.6783 24.0613 51.5947L29.2209 44.6551C30.0061 43.5391 31.3521 44.3162 32.1373 46.3389L37.1848 59.1715C38.026 61.2266 37.353 62.0935 35.7266 61.1545Z" fill="#E84142"/>
</g>
<defs>
<clipPath id="clip0_528_10579">
<rect width="48" height="48" fill="white" transform="matrix(0.866025 0.5 -2.20305e-08 1 0.00976562 0)"/>
</clipPath>
</defs>
</svg>
