<svg width="43" height="72" viewBox="0 0 43 72" fill="none" xmlns="http://www.w3.org/2000/svg">
<g clip-path="url(#clip0_528_10576)">
<path d="M9.59023 12.5982L21.2884 12L32.9865 26.1061L28.6858 26.3391L21.2884 17.4322L13.891 17.7974L9.59023 12.5982ZM32.9865 35.3782L28.6858 30.1791L21.2884 30.5443L13.891 21.6374L9.59023 21.8704L9.59023 27.3026L16.9876 36.2098L16.9876 45.482L21.2884 50.6809L25.5891 50.4481L25.5891 41.1759L32.9865 40.8104L32.9865 35.3782ZM32.9865 50.0826L32.9865 44.6504L28.6858 44.8838L28.6858 50.316L32.9865 50.0826ZM36.0403 53.7657L28.6428 54.1311L28.6428 59.5633L40.341 58.9651L40.341 44.2607L36.0403 44.4935L36.0403 53.7657ZM31.7395 30.0222L36.0403 35.2213L36.0403 40.6535L40.341 40.4207L40.341 34.9882L36.0403 29.7891L31.7395 30.0222ZM16.9876 49.3684L16.9876 54.8005L21.2884 60L25.5891 59.7666L25.5891 54.3344L21.2884 54.5678L16.9876 49.3684ZM9.59023 36.5748L13.891 41.7742L13.891 36.342L9.59023 31.1426L9.59023 36.5748ZM16.9876 21.5052L21.2884 26.7043L25.5891 26.4713L21.2884 21.2722L16.9876 21.5052ZM6.53665 18.1874L10.8375 17.9544L6.53665 12.7552L2.23584 12.9882L2.23584 18.4207L6.53665 23.6196L6.53665 18.1874ZM6.53665 27.4596L2.23584 22.2607L2.23584 36.9651L13.934 51.0712L13.934 45.639L6.53665 36.7318L6.53665 27.4596Z" fill="#F3BB30"/>
</g>
<defs>
<clipPath id="clip0_528_10576">
<rect width="48" height="48" fill="white" transform="matrix(0.866025 0.5 -2.20305e-08 1 0.503906 0)"/>
</clipPath>
</defs>
</svg>
