<svg width="42" height="72" viewBox="0 0 42 72" fill="none" xmlns="http://www.w3.org/2000/svg">
<g clip-path="url(#clip0_528_10610)">
<path fill-rule="evenodd" clip-rule="evenodd" d="M11.2623 10.9671C10.9484 10.8638 10.4347 10.7496 10.1208 10.7134C9.8069 10.6772 9.29323 10.7 8.97933 10.7642C8.66542 10.8282 8.2087 11.008 7.96435 11.1636C7.72001 11.3192 7.36669 11.6329 7.17915 11.8609C6.99168 12.0888 6.7423 12.5103 6.625 12.7974C6.50769 13.0846 6.34896 13.6016 6.27228 13.9464C6.13517 14.563 6.13248 14.7625 6.10878 26.1138C6.09334 33.5224 6.10925 38.0344 6.15336 38.7158C6.1911 39.2996 6.28275 40.0891 6.35702 40.4704C6.43135 40.8517 6.60311 41.5168 6.73874 41.9484C6.87444 42.38 7.10663 43.0154 7.25476 43.3603C7.40288 43.7052 7.75539 44.39 8.03814 44.8819C8.32089 45.3739 8.72343 46.0034 8.93266 46.2809C9.14189 46.5584 9.49762 47.001 9.72317 47.2645C9.94871 47.528 10.3289 47.9273 10.5681 48.1518C10.8072 48.3763 11.23 48.7421 11.5078 48.9647C11.9349 49.3069 13.801 50.4018 23.623 56.0725L35.2333 62.7757L35.2333 58.9242L35.2333 55.0728L24.4543 48.8495C14.906 43.3368 13.647 42.5961 13.428 42.3626C13.2921 42.2176 13.1236 42.0054 13.0537 41.891C12.9838 41.7766 12.8691 41.5179 12.7988 41.3159C12.6746 40.9597 12.6714 40.6425 12.6884 30.5894L12.7059 20.23L12.909 20.0535C13.0208 19.9564 13.2167 19.8718 13.3444 19.8652C13.5679 19.854 13.9865 20.0902 24.405 26.1053L35.2333 32.357L35.2333 28.5055L35.2333 24.6541L34.7419 24.3704C34.4716 24.2143 34.0864 24.049 33.8858 24.0028C33.6852 23.9567 33.3436 23.9214 33.1267 23.9243C32.8949 23.9274 32.5487 24.0415 32.2874 24.201C32.0223 24.3626 31.7539 24.6262 31.6235 24.8531C31.5032 25.0625 31.3601 25.4558 31.3057 25.727C31.2514 25.9983 31.2061 26.4143 31.2051 26.6514C31.2039 26.9364 31.1495 27.1868 31.0449 27.3894C30.9577 27.558 30.7921 27.7675 30.6767 27.8547C30.5613 27.9419 30.3092 28.0016 30.1165 27.9874C29.8325 27.9664 29.6816 27.9057 29.3211 27.6674C28.9655 27.4323 28.8099 27.2841 28.5464 26.9298C28.365 26.6858 28.1377 26.3108 28.0414 26.0963C27.945 25.8818 27.8343 25.564 27.7953 25.3902C27.7563 25.2164 27.7049 24.7504 27.6812 24.3547C27.6574 23.959 27.5803 23.3839 27.51 23.0769C27.4396 22.7698 27.2863 22.2864 27.1694 22.0027C27.0523 21.719 26.7689 21.166 26.5395 20.7738C26.3101 20.3816 25.9551 19.8651 25.7506 19.6259C25.5461 19.3867 25.2166 19.0469 25.0184 18.8707C24.7173 18.6031 23.5998 17.94 18.2454 14.8526C12.3328 11.4431 11.7886 11.1403 11.2623 10.9671Z" fill="#FC292A"/>
</g>
<defs>
<clipPath id="clip0_528_10610">
<rect width="48" height="48" rx="24" transform="matrix(0.866025 0.5 -2.20305e-08 1 0.277344 0)" fill="white"/>
</clipPath>
</defs>
</svg>
