<svg width="43" height="72" viewBox="0 0 43 72" fill="none" xmlns="http://www.w3.org/2000/svg">
<g clip-path="url(#clip0_528_10585)">
<path fill-rule="evenodd" clip-rule="evenodd" d="M16.9356 15.094C12.7608 15.3251 10.7185 15.494 9.85333 15.6798L9.0539 15.8512L9.68267 29.9762L10.3117 44.1014L10.801 44.7979C11.0702 45.1811 13.5416 47.8976 16.2929 50.8347C16.2929 50.8347 21.1128 56.0807 22.5154 56.8028C23.4807 57.2997 23.4807 57.2997 26.2912 57.1868C27.5633 57.0836 29.5109 56.9596 30.6191 56.9115C31.7273 56.8633 32.9252 56.7348 33.2808 56.6258L33.9275 56.4277L33.2395 42.2904C32.7162 31.5332 32.4872 28.0368 32.2823 27.6672C31.9919 27.1434 30.3986 25.4068 24.8405 19.5565C22.0821 16.653 21.099 15.7199 20.4424 15.3819C19.8018 15.0521 18.952 14.9824 16.9356 15.094ZM23.8691 19.9428C25.3444 21.5094 27.6355 23.9473 28.9605 25.3605L31.3697 27.93L30.8048 28.0154C30.4941 28.0624 29.4704 28.1572 28.5297 28.2258C22.7729 28.6463 21.7037 28.6623 21.0718 28.337C20.6599 28.125 19.6039 27.1403 18.3462 25.7957C17.2165 24.588 15.5742 22.8324 14.696 21.8942C12.4352 19.4784 10.3443 17.22 10.2503 17.0923C10.2062 17.0324 10.7935 16.9624 11.5552 16.9364C13.269 16.8784 16.9621 16.644 18.5748 16.4906C20.2946 16.3271 20.7334 16.6133 23.8691 19.9428ZM31.2103 24.3511C31.0209 24.757 31.0702 24.8615 31.8601 25.7298C32.9458 26.9227 33.5788 28.2511 33.637 29.4582C33.68 30.3499 33.7135 30.4132 34.3035 30.7169C34.8852 31.0165 34.9214 30.9823 34.8723 30.1788C34.7793 28.6544 34.1131 27.0537 32.9395 25.5347C31.6758 23.8993 31.4828 23.7672 31.2103 24.3511ZM13.5789 22.1268C18.4574 27.3009 19.2108 28.1325 19.1254 28.2503C19.0806 28.3119 18.2965 28.3982 17.3831 28.4419C15.225 28.5452 12.4619 28.7535 11.7006 28.8705C11.3699 28.9212 11.0296 28.9272 10.9441 28.8837C10.8586 28.8401 10.6804 26.555 10.5479 23.8054C10.4154 21.0559 10.3686 18.838 10.4439 18.8768C10.5193 18.9156 11.9299 20.3779 13.5789 22.1268ZM31.6684 34.6951L31.9101 39.7109L28.7715 36.3857C27.0453 34.5569 25.0259 32.4 24.2841 31.5927L22.9352 30.1247L25.2154 29.9678C26.4694 29.8815 28.3103 29.7494 29.3062 29.674C30.3021 29.5988 31.1867 29.5691 31.2717 29.6082C31.3568 29.6471 31.5354 31.9362 31.6684 34.6951ZM20.8042 35.5119C20.9548 38.6365 21.0161 41.161 20.9406 41.1221C20.6421 40.9685 11.0811 30.6778 11.0725 30.501C11.0675 30.3974 11.7661 30.279 12.6247 30.238C14.4607 30.1501 19.2424 29.8358 19.8205 29.765C20.0413 29.7379 20.2914 29.7417 20.3761 29.7733C20.4609 29.805 20.6535 32.3874 20.8042 35.5119ZM24.1251 32.8798C28.4304 37.422 31.0654 40.2444 31.5315 40.813C31.9896 41.3717 31.9556 41.3912 30.3364 41.497C25.2716 41.8279 22.5811 41.9666 22.4585 41.9035C22.3825 41.8644 22.1971 39.2761 22.0465 36.1515C21.8959 33.027 21.8029 30.4862 21.84 30.5053C21.8769 30.5243 22.905 31.5927 24.1251 32.8798ZM17.7517 39.2088C18.513 40.0266 19.4511 41.054 19.8365 41.4919C21.0127 42.8289 22.6994 43.5672 24.2464 43.4221C24.9472 43.3563 26.3818 43.2542 27.434 43.1951C28.4862 43.136 29.9576 43.0337 30.7042 42.9681L32.0614 42.8483L32.3599 49.0457L32.6586 55.2431L29.7894 55.4127C28.2116 55.506 26.0349 55.657 24.9526 55.748C23.8702 55.8392 22.7483 55.7918 22.4595 55.6432C22.0192 55.4165 12.6328 45.6532 11.8005 44.5564C11.5968 44.288 11.459 42.7075 11.2361 38.0825L10.9412 31.964L13.6544 34.843C15.1468 36.4266 16.9905 38.3911 17.7517 39.2088ZM7.83519 41.7737C7.93103 42.4799 8.1723 43.4472 8.37155 43.9239C8.75589 44.843 10.5463 47.294 11.0068 47.5311C11.2519 47.6573 11.7996 47.0812 11.626 46.8799C9.57048 44.4966 9.07774 43.5739 9.00006 41.9623C8.96399 41.2141 8.91728 41.1371 8.31122 40.8251L7.66107 40.4903L7.83519 41.7737Z" fill="#007BFD"/>
</g>
<defs>
<clipPath id="clip0_528_10585">
<rect width="48" height="48" fill="white" transform="matrix(0.866025 0.5 -2.20305e-08 1 0.515625 0)"/>
</clipPath>
</defs>
</svg>
