<svg width="42" height="72" viewBox="0 0 42 72" fill="none" xmlns="http://www.w3.org/2000/svg">
<g clip-path="url(#clip0_528_10596)">
<path d="M19.4679 13.362C19.575 13.4239 19.6787 13.4531 19.6982 13.4271C19.7199 13.3982 20.1487 13.6192 20.7922 13.9907C21.4357 14.3622 21.8645 14.6364 21.8862 14.6903C21.9057 14.7389 22.0223 14.8368 22.1453 14.9078C22.2682 14.9788 22.3848 15.0767 22.4044 15.1253C22.4239 15.174 22.5007 15.2489 22.5751 15.2918C22.6493 15.3347 22.8227 15.5003 22.9603 15.6598C23.0979 15.8193 23.2752 16.021 23.3544 16.108C23.4335 16.1951 23.5113 16.2896 23.5271 16.3181C23.555 16.368 23.903 16.7833 25.1105 18.2072C25.4271 18.5806 25.6992 18.9103 25.715 18.9397C25.7309 18.9692 25.977 19.2641 26.262 19.595C26.547 19.9258 26.7932 20.221 26.809 20.2507C26.8248 20.2804 27.1228 20.6359 27.4711 21.0405C27.8195 21.4451 28.1174 21.8003 28.1333 21.8296C28.161 21.8812 28.4917 22.276 29.7166 23.7205C30.0333 24.0939 30.3053 24.4233 30.3212 24.4524C30.337 24.4815 30.5702 24.7659 30.8394 25.0845C31.3926 25.7391 32.3254 26.8514 33.1568 27.8477L34.2796 29.193C34.5883 29.5629 35.0807 30.1529 35.3736 30.5041C35.6664 30.8553 36.1458 31.4289 36.4387 31.7786C37.2812 32.7845 37.4174 32.9655 37.6633 33.4056C37.8953 33.8207 37.9627 33.9962 38.0849 34.5041C38.1511 34.7792 38.1199 34.9772 37.9565 35.3164C37.8636 35.5095 37.2904 35.8418 37.0721 35.829C36.9691 35.823 36.8849 35.8412 36.8849 35.8695C36.8849 35.8977 36.8573 35.9049 36.8233 35.8853C36.7895 35.8657 36.6488 35.8762 36.5107 35.9086C36.3726 35.941 36.2431 35.958 36.2228 35.9463C36.2025 35.9346 36.073 35.9515 35.9349 35.9839C35.7969 36.0163 35.6673 36.0333 35.647 36.0216C35.6268 36.0099 35.4972 36.0268 35.3592 36.0592C35.2211 36.0916 35.0915 36.1086 35.0713 36.0969C35.051 36.0852 34.9215 36.1021 34.7834 36.1345C34.6453 36.1669 34.5172 36.1846 34.4986 36.1739C34.4665 36.1554 34.2879 36.1831 33.4166 36.3418C33.2032 36.3807 33.0142 36.4042 32.9966 36.394C32.9789 36.3838 32.7725 36.4175 32.5379 36.4689C32.3033 36.5203 32.0954 36.5532 32.0758 36.5419C32.0564 36.5307 31.9275 36.548 31.7894 36.5804C31.6513 36.6128 31.5218 36.6297 31.5015 36.618C31.4812 36.6063 31.3517 36.6232 31.2136 36.6557C31.0755 36.6881 30.946 36.705 30.9257 36.6933C30.9055 36.6816 30.7759 36.6985 30.6379 36.7309C30.4998 36.7633 30.3702 36.7803 30.35 36.7686C30.3297 36.7569 30.2002 36.7738 30.0621 36.8062C29.924 36.8386 29.7945 36.8556 29.7742 36.8439C29.7539 36.8322 29.6244 36.8491 29.4863 36.8815C29.3482 36.9139 29.2191 36.9311 29.1993 36.9197C29.1795 36.9082 29.0107 36.9331 28.8242 36.9749C28.6376 37.0167 28.4689 37.0416 28.4491 37.0301C28.4293 37.0187 28.3001 37.0359 28.162 37.0683C28.024 37.1007 27.8944 37.1176 27.8742 37.1059C27.8539 37.0942 27.7243 37.1112 27.5863 37.1436C27.4482 37.176 27.3191 37.1931 27.2993 37.1817C27.2794 37.1703 27.1107 37.1952 26.9241 37.2369C26.7376 37.2787 26.5735 37.3063 26.5594 37.2982C26.5454 37.2901 26.1877 37.3319 25.7646 37.3912C25.3415 37.4504 24.9046 37.5075 24.7938 37.5182C24.683 37.5287 24.5235 37.5552 24.4395 37.5771C24.3554 37.599 24.2687 37.6065 24.2468 37.5938C24.2249 37.5812 24.1382 37.5887 24.0542 37.6106C23.7815 37.6814 23.1258 37.7195 22.865 37.6796C22.5393 37.6299 22.3245 37.5712 22.1959 37.4969C22.1174 37.4516 22.0227 37.4329 21.9855 37.4553C21.8981 37.508 19.8179 36.3037 19.5446 36.0421C18.6517 35.1874 18.4941 35.0118 16.9345 33.1338C16.6495 32.7907 16.1313 32.1702 15.783 31.755C15.4347 31.3399 14.8906 30.6899 14.5739 30.3106L13.4799 29.0001C13.1949 28.6587 12.7415 28.1144 12.4723 27.7906C12.2032 27.4668 11.7238 26.8912 11.4072 26.5115C11.0905 26.1317 10.6112 25.5563 10.342 25.2327C10.0728 24.9091 9.58698 24.3269 9.26242 23.939C8.22643 22.7009 7.44915 21.771 6.90176 21.1152L5.83659 19.8388C5.54364 19.4878 5.10663 18.9645 4.86544 18.6761C4.2325 17.919 3.92227 17.4705 3.769 17.0911C3.51785 16.4693 3.43304 15.9862 3.54307 15.8036C3.57209 15.7554 3.63675 15.6327 3.68678 15.5308C3.73687 15.4289 3.82335 15.3106 3.87909 15.268C4.09489 15.1032 4.96332 14.8997 5.23203 14.951C5.28748 14.9616 5.33279 14.9433 5.33279 14.9102C5.33279 14.8773 5.36049 14.8662 5.3944 14.8858C5.42825 14.9054 5.56897 14.8949 5.70704 14.8625C5.84511 14.8301 5.97466 14.8131 5.99493 14.8248C6.01519 14.8365 6.14474 14.8196 6.28281 14.7872C6.42088 14.7548 6.55043 14.7378 6.57069 14.7495C6.59096 14.7612 6.72051 14.7443 6.85858 14.7119C6.99665 14.6795 7.12579 14.6623 7.1456 14.6737C7.16541 14.6852 7.33417 14.6603 7.52071 14.6185C7.70726 14.5767 7.87602 14.5518 7.89583 14.5633C7.91564 14.5747 8.04478 14.5575 8.18285 14.5251C8.32092 14.4927 8.45047 14.4758 8.47073 14.4875C8.491 14.4992 8.62055 14.4822 8.75862 14.4498C8.89669 14.4174 9.02624 14.4005 9.0465 14.4122C9.06677 14.4239 9.19632 14.407 9.33439 14.3745C9.47246 14.3421 9.61099 14.3304 9.64225 14.3484C9.67346 14.3665 9.70766 14.3633 9.71825 14.3414C9.74226 14.2914 10.0489 14.2478 10.1836 14.2752C10.239 14.2864 10.2844 14.2686 10.2844 14.2356C10.2844 14.2026 10.3121 14.1916 10.346 14.2111C10.3799 14.2307 10.5206 14.2202 10.6587 14.1878C10.7967 14.1554 10.9263 14.1384 10.9465 14.1501C10.9668 14.1618 11.0964 14.1449 11.2344 14.1125C11.3725 14.0801 11.502 14.0632 11.5223 14.0749C11.5426 14.0866 11.6721 14.0696 11.8102 14.0372C11.9483 14.0048 12.0778 13.9879 12.0981 13.9996C12.1183 14.0113 12.2479 13.9943 12.386 13.9619C12.524 13.9295 12.6536 13.9126 12.6738 13.9243C12.6941 13.936 12.8237 13.919 12.9617 13.8866C13.0998 13.8542 13.2289 13.8371 13.2488 13.8485C13.2686 13.8599 13.4373 13.835 13.6239 13.7933C13.8104 13.7515 13.9792 13.7266 13.999 13.738C14.0188 13.7495 14.1479 13.7323 14.286 13.6999C14.4241 13.6675 14.5648 13.657 14.5986 13.6765C14.6326 13.6961 14.6603 13.6851 14.6603 13.6521C14.6603 13.6191 14.7056 13.6013 14.761 13.6125C14.8596 13.6325 15.1791 13.6032 15.236 13.5689C15.2519 13.5593 15.3231 13.547 15.3944 13.5414L15.6535 13.5211C15.7247 13.5155 15.796 13.5031 15.8118 13.4936C15.8687 13.4592 16.1882 13.4299 16.2868 13.4499C16.3422 13.4611 16.3876 13.4434 16.3876 13.4103C16.3876 13.3774 16.4153 13.3663 16.4492 13.3859C16.483 13.4054 16.6237 13.395 16.7618 13.3625C16.8999 13.3301 17.0294 13.3132 17.0497 13.3249C17.07 13.3366 17.1995 13.3197 17.3376 13.2873C17.4756 13.2549 17.6052 13.2379 17.6255 13.2496C17.6457 13.2613 17.7706 13.2484 17.903 13.2209C18.1347 13.1728 18.3265 13.168 18.6331 13.2028C18.7122 13.2117 18.822 13.218 18.877 13.2167C18.9319 13.2155 19.0276 13.2437 19.0895 13.2794C19.1514 13.3152 19.218 13.3231 19.2376 13.297C19.2572 13.271 19.3608 13.3002 19.4679 13.362Z" fill="url(#paint0_linear_528_10596)"/>
<path d="M34.1028 40.0197C34.1288 40.0332 34.2537 40.0148 34.3804 39.9789C34.6587 39.9 34.7446 39.942 35.0264 40.2953C35.1461 40.4454 35.4772 40.8465 35.7622 41.1867C37.0171 42.6846 37.1814 42.8849 37.3591 43.1343C37.595 43.4654 37.8853 43.9978 37.962 44.24C38.1745 44.9113 38.1735 45.1386 37.9565 45.5719C37.8707 45.7434 37.3495 46.0515 37.1397 46.0547C37.0471 46.0562 36.863 46.0799 36.7306 46.1073C36.5983 46.1349 36.4738 46.148 36.454 46.1366C36.4342 46.1251 36.2654 46.15 36.0789 46.1918C35.8923 46.2336 35.7236 46.2585 35.7038 46.247C35.6839 46.2356 35.5548 46.2528 35.4167 46.2852C35.2787 46.3176 35.1495 46.3348 35.1297 46.3233C35.1099 46.3119 34.9412 46.3368 34.7546 46.3786C34.5681 46.4204 34.3993 46.4452 34.3795 46.4338C34.3597 46.4224 34.2305 46.4395 34.0925 46.4719C33.9544 46.5044 33.8248 46.5213 33.8046 46.5096C33.7843 46.4979 33.6548 46.5148 33.5167 46.5472C33.3786 46.5796 33.2491 46.5966 33.2288 46.5849C33.2085 46.5732 33.079 46.5901 32.9409 46.6225C32.8029 46.6549 32.6733 46.6719 32.653 46.6602C32.6328 46.6485 32.5032 46.6654 32.3652 46.6978C32.2271 46.7302 32.0968 46.7468 32.0758 46.7346C32.0547 46.7224 31.9687 46.7303 31.8846 46.7522C31.8006 46.774 31.6411 46.8002 31.5303 46.8103C31.4195 46.8205 31.1085 46.8627 30.8394 46.9041C30.5702 46.9456 30.2722 46.9876 30.1772 46.9975C30.0822 47.0074 29.7843 47.0494 29.5151 47.0909C29.2459 47.1323 28.935 47.1742 28.8242 47.1839C28.7133 47.1937 28.5967 47.2108 28.5651 47.2219C28.5334 47.233 28.4168 47.2501 28.306 47.2599C28.1951 47.2696 27.8842 47.3115 27.6151 47.3529C27.3459 47.3944 27.0479 47.4364 26.9529 47.4463C26.8579 47.4562 26.56 47.4982 26.2908 47.5397C26.0216 47.5811 25.7107 47.6233 25.5999 47.6335C25.489 47.6436 25.3296 47.6698 25.2455 47.6916C25.1615 47.7135 25.0748 47.721 25.0529 47.7083C25.031 47.6957 24.9443 47.7032 24.8602 47.7251C24.7762 47.7469 24.6167 47.7731 24.5059 47.7832C24.3951 47.7933 24.0971 47.8324 23.8438 47.8701C23.3262 47.9468 22.9737 47.9431 22.6347 47.8572C21.5197 47.5747 21.0837 47.3734 20.1654 46.7171C19.08 45.9415 19.0237 45.8805 15.5095 41.6644C15.2007 41.2941 14.6955 40.6882 14.3868 40.318C14.078 39.9478 13.6052 39.3802 13.336 39.0566C13.0668 38.7331 12.5875 38.159 12.2708 37.7809C11.9541 37.4028 11.4359 36.7825 11.1193 36.4024C10.8026 36.0223 10.2585 35.3715 9.91016 34.9562C9.56182 34.541 9.04362 33.9205 8.75862 33.5775C8.47361 33.2345 7.95542 32.6144 7.60708 32.1994C7.25874 31.7845 6.77941 31.2105 6.54191 30.9239C6.3044 30.6372 5.88985 30.1381 5.62068 29.8148C4.02597 27.8995 3.97023 27.8244 3.74563 27.2894C3.52228 26.7575 3.41047 26.0379 3.54791 26.017C3.57957 26.0122 3.60612 25.9569 3.60692 25.8942C3.60997 25.649 4.01509 25.3677 4.52349 25.2578C4.80786 25.1963 5.05625 25.1551 5.07548 25.1662C5.09477 25.1774 5.22351 25.16 5.36158 25.1275C5.49965 25.0951 5.6292 25.0782 5.64946 25.0899C5.66973 25.1016 5.79928 25.0847 5.93735 25.0523C6.07542 25.0199 6.20497 25.0029 6.22523 25.0146C6.2455 25.0263 6.37038 25.0134 6.50275 24.9859C6.91236 24.9008 7.04639 24.915 7.13495 25.0529C7.17825 25.1203 7.48358 25.4957 7.81344 25.8873C8.14329 26.2787 8.64634 26.8795 8.93135 27.2223C9.21635 27.5652 9.70864 28.1553 10.0253 28.5334C10.342 28.9117 10.8343 29.5017 11.1193 29.8446C11.4043 30.1875 11.8966 30.7777 12.2132 31.1563C13.7807 33.0302 14.1087 33.4219 14.7754 34.2159C16.995 36.8595 17.7809 37.785 17.9997 38.0131C18.0789 38.0956 18.1886 38.2161 18.2436 38.2809C18.2986 38.3456 18.3906 38.4257 18.448 38.4589C18.5055 38.4921 18.5771 38.5609 18.6072 38.6118C18.6373 38.6627 18.7655 38.7811 18.8922 38.875C19.0188 38.9689 19.2909 39.1806 19.4967 39.3455C19.7026 39.5105 20.2985 39.8922 20.821 40.1938C21.7149 40.7099 22.1045 40.8879 22.721 41.062C22.8635 41.1022 23.0517 41.1595 23.1391 41.1893C23.2266 41.2191 23.3124 41.2246 23.3297 41.2015C23.347 41.1785 23.414 41.1901 23.4786 41.2274C23.6229 41.3107 24.5048 41.3266 24.8329 41.2518C24.9653 41.2216 25.0902 41.2065 25.1105 41.2182C25.1307 41.2299 25.2603 41.213 25.3983 41.1806C25.5364 41.1482 25.6667 41.1316 25.6877 41.1438C25.7088 41.156 25.7948 41.1481 25.8789 41.1262C25.9629 41.1044 26.1289 41.0778 26.2476 41.0673L26.6794 41.0289C26.7982 41.0184 26.9641 40.9918 27.0482 40.97C27.1322 40.9481 27.2174 40.9398 27.2375 40.9514C27.2576 40.9629 27.5052 40.9224 27.7878 40.8613C28.0704 40.8003 28.3173 40.7594 28.3366 40.7705C28.3558 40.7816 28.4846 40.7642 28.6227 40.7318C28.7607 40.6994 28.8903 40.6824 28.9105 40.6941C28.9308 40.7058 29.0604 40.6889 29.1984 40.6565C29.3365 40.6241 29.466 40.6072 29.4863 40.6189C29.5066 40.6306 29.6361 40.6136 29.7742 40.5812C29.9123 40.5488 30.0418 40.5319 30.0621 40.5436C30.0823 40.5553 30.2119 40.5383 30.35 40.5059C30.488 40.4735 30.6176 40.4566 30.6379 40.4683C30.6581 40.48 30.7877 40.463 30.9257 40.4306C31.0638 40.3982 31.1934 40.3813 31.2136 40.393C31.2339 40.4047 31.3634 40.3877 31.5015 40.3553C31.6396 40.3229 31.7691 40.306 31.7894 40.3177C31.8097 40.3294 31.9392 40.3125 32.0773 40.2801C32.2153 40.2477 32.3449 40.2307 32.3652 40.2424C32.3854 40.2541 32.515 40.2372 32.653 40.2048C32.7911 40.1724 32.9207 40.1554 32.9409 40.1671C32.9612 40.1788 33.0907 40.1619 33.2288 40.1295C33.3669 40.0971 33.4964 40.0801 33.5167 40.0918C33.537 40.1035 33.6665 40.0866 33.8046 40.0542C33.9426 40.0218 34.0769 40.0063 34.1028 40.0197Z" fill="url(#paint1_linear_528_10596)"/>
<path d="M33.344 50.3209C33.439 50.3098 33.6708 50.2788 33.8592 50.2522C34.1891 50.2056 34.328 50.262 34.4955 50.5109C34.5272 50.558 34.8057 50.8985 35.1145 51.2677C35.4232 51.6368 35.9285 52.2429 36.2372 52.6145C36.5459 52.9862 36.923 53.4368 37.0751 53.6158C37.5106 54.1285 37.9403 54.9136 38.0584 55.4124C38.1441 55.7739 38.1484 55.8765 38.0884 56.1182C38.0076 56.4434 37.7265 56.7695 37.4498 56.8587C37.2845 56.912 35.5039 57.1745 34.9273 57.2305C34.8165 57.2413 34.6571 57.268 34.573 57.2898C34.4889 57.3117 34.4029 57.3196 34.3818 57.3074C34.3608 57.2952 34.2305 57.3118 34.0925 57.3442C33.9544 57.3766 33.8242 57.3931 33.8031 57.381C33.782 57.3688 33.696 57.3767 33.6119 57.3986C33.5279 57.4204 33.3684 57.4471 33.2576 57.4579C33.1468 57.4687 32.5768 57.5442 31.9909 57.6258C31.4051 57.7074 30.848 57.7833 30.753 57.7947C30.658 57.8059 29.9714 57.8987 29.2272 58.0008C28.483 58.1028 27.7835 58.1953 27.6726 58.2062C27.5618 58.2171 27.4024 58.2438 27.3183 58.2657C27.2342 58.2875 27.1475 58.295 27.1257 58.2824C27.1038 58.2697 27.0171 58.2772 26.933 58.2991C26.8489 58.321 26.6895 58.3477 26.5787 58.3586C26.4678 58.3695 25.7683 58.4631 25.0241 58.5666C24.2799 58.6701 23.5415 58.7637 23.3832 58.7746C22.5766 58.8301 21.1629 58.3099 20.1483 57.5844C19.1878 56.8977 18.7277 56.4105 16.4451 53.6634C16.176 53.3395 15.7031 52.7717 15.3944 52.4016L14.286 51.0733L13.192 49.7621L12.0981 48.451L11.0041 47.1399L9.91016 45.8288L8.81619 44.5177C8.51536 44.1571 8.02958 43.5746 7.73663 43.2232C7.44373 42.8717 6.92548 42.2515 6.58509 41.8448C6.24464 41.4382 5.70053 40.7872 5.37597 40.3982C5.05135 40.0092 4.66922 39.5515 4.52671 39.3812C3.97236 38.7187 3.4882 37.6738 3.49119 37.1464C3.49321 36.7936 3.7287 36.3804 4.00374 36.2471C4.17953 36.162 4.9658 35.9751 5.019 36.0059C5.03932 36.0176 5.12471 36.0093 5.20877 35.9875C5.29283 35.9656 5.45226 35.939 5.5631 35.9283C5.67393 35.9176 6.14952 35.8556 6.61992 35.7905L7.47529 35.6722L8.03056 36.333C8.336 36.6965 8.80612 37.2593 9.07529 37.5838C9.34446 37.9083 9.83675 38.4983 10.1693 38.8952C10.5018 39.292 10.994 39.882 11.2632 40.2063C11.5324 40.5306 12.0247 41.1206 12.3572 41.5175C12.9273 42.1979 13.2862 42.6279 14.5595 44.1562C16.9025 46.9684 17.9455 48.1905 18.23 48.4571C18.3725 48.5906 18.515 48.7363 18.5467 48.7808C18.5784 48.8252 18.695 48.9314 18.8058 49.0166C18.9166 49.1019 19.1757 49.3082 19.3816 49.4753C20.0498 50.0174 22.1201 51.1623 22.6059 51.2585C22.685 51.2741 22.8664 51.316 23.0089 51.3516C23.7825 51.5446 24.1368 51.5614 24.9665 51.4441C25.1724 51.415 25.4185 51.3829 25.5135 51.3729C25.734 51.3496 26.0179 51.3114 27.3272 51.1284C27.913 51.0465 28.483 50.9708 28.5939 50.96C28.7047 50.9492 28.8641 50.9225 28.9482 50.9007C29.0323 50.8788 29.1183 50.8709 29.1394 50.8831C29.1604 50.8952 29.2907 50.8787 29.4287 50.8463C29.5668 50.8139 29.6964 50.797 29.7166 50.8087C29.7369 50.8204 29.8664 50.8034 30.0045 50.771C30.1426 50.7386 30.2728 50.7221 30.2939 50.7342C30.315 50.7464 30.401 50.7385 30.485 50.7166C30.5691 50.6948 30.7285 50.6681 30.8394 50.6574C30.9502 50.6465 31.5202 50.571 32.1061 50.4894C32.6919 50.4078 33.249 50.332 33.344 50.3209Z" fill="url(#paint2_linear_528_10596)"/>
</g>
<defs>
<linearGradient id="paint0_linear_528_10596" x1="5.36028" y1="5.08109" x2="26.0109" y2="7.32763" gradientUnits="userSpaceOnUse">
<stop stop-color="#B6F9B7"/>
<stop offset="1" stop-color="#EFFA90"/>
</linearGradient>
<linearGradient id="paint1_linear_528_10596" x1="5.36028" y1="5.08109" x2="26.0109" y2="7.32763" gradientUnits="userSpaceOnUse">
<stop stop-color="#B6F9B7"/>
<stop offset="1" stop-color="#EFFA90"/>
</linearGradient>
<linearGradient id="paint2_linear_528_10596" x1="5.36028" y1="5.08109" x2="26.0109" y2="7.32763" gradientUnits="userSpaceOnUse">
<stop stop-color="#B6F9B7"/>
<stop offset="1" stop-color="#EFFA90"/>
</linearGradient>
<clipPath id="clip0_528_10596">
<rect width="48" height="48" fill="white" transform="matrix(0.866025 0.5 -2.20305e-08 1 0.0234375 0)"/>
</clipPath>
</defs>
</svg>
