<svg width="42" height="72" viewBox="0 0 42 72" fill="none" xmlns="http://www.w3.org/2000/svg">
<g clip-path="url(#clip0_528_10592)">
<path d="M30.5283 23.8273C28.8148 22.8183 27.1708 22.6519 25.9572 23.3646C24.7435 24.0773 24.0594 25.6108 24.055 27.6287L24.055 36.0634C23.3883 35.7244 22.7067 35.3571 22 34.9416C21.2933 34.5261 20.615 34.1607 19.945 33.8139V25.2122C19.9177 23.1933 19.2238 20.8753 18.013 18.7583C16.8021 16.6414 15.1713 14.8951 13.4725 13.8963C11.7737 12.8974 10.1429 12.7261 8.93203 13.4192C7.72117 14.1123 7.02726 15.6143 7 17.6012L7 37.7603C7.02726 39.7793 7.72117 42.0972 8.93203 44.2142C10.1429 46.3312 11.7737 48.0774 13.4725 49.0763C15.1713 50.0751 16.8021 50.2464 18.013 49.5533C19.2238 48.8602 19.9177 47.3582 19.945 45.3713L19.945 36.9366C20.6117 37.2756 21.2933 37.6429 22 38.0584C22.7067 38.4739 23.385 38.8393 24.055 39.1861L24.055 47.7878C24.0823 49.8067 24.7762 52.1247 25.987 54.2417C27.1979 56.3586 28.8287 58.1049 30.5275 59.1037C32.2263 60.1026 33.8571 60.2739 35.068 59.5808C36.2788 58.8877 36.9727 57.3857 37 55.3988V35.2397C36.9956 33.217 36.3117 30.8794 35.0984 28.7398C33.8851 26.6003 32.2415 24.8335 30.5283 23.8273ZM13.4717 16.9157C14.4829 17.5097 15.453 18.5526 16.1692 19.8155C16.8853 21.0784 17.289 22.4582 17.2917 23.6522V32.5841C15.398 31.7942 13.5487 31.3234 11.7917 31.1839C11.0304 31.1303 10.3137 31.2133 9.65833 31.431L9.65833 19.1642C9.66098 17.9747 10.0637 17.0702 10.7785 16.6488C11.4932 16.2274 12.4616 16.3234 13.4717 16.9157ZM17.2917 43.8113C17.2917 45.0059 16.8892 45.915 16.1728 46.3385C15.4564 46.762 14.4848 46.6653 13.4717 46.0696C12.4585 45.474 11.4869 44.4281 10.7705 43.1622C10.0541 41.8963 9.65167 40.514 9.65167 39.3194L9.65167 37.2972C9.65167 35.5108 10.8517 34.5243 12.8633 34.6537C14.2808 34.766 15.7681 35.1276 17.2917 35.7304L17.2917 43.8113ZM30.5283 56.0843C29.5171 55.4903 28.547 54.4474 27.8308 53.1845C27.1147 51.9216 26.711 50.5418 26.7083 49.3478V40.4159C28.602 41.2058 30.4513 41.6766 32.2083 41.8161C32.9696 41.8697 33.6863 41.7867 34.3417 41.569L34.3417 53.8358C34.339 55.0253 33.9363 55.9298 33.2215 56.3512C32.5068 56.7726 31.5384 56.6766 30.5283 56.0843ZM31.1367 38.3345C29.7192 38.2222 28.2319 37.8606 26.7083 37.2578L26.7083 29.1887C26.7083 27.9941 27.1108 27.085 27.8272 26.6615C28.5436 26.238 29.5152 26.3347 30.5283 26.9304C31.5415 27.526 32.5131 28.5719 33.2295 29.8378C33.9459 31.1037 34.3483 32.486 34.3483 33.6806V35.7028C34.3483 37.4813 33.1483 38.4678 31.1367 38.3345Z" fill="url(#paint0_linear_528_10592)"/>
</g>
<defs>
<linearGradient id="paint0_linear_528_10592" x1="8.9" y1="56.4984" x2="45.9894" y2="32.8247" gradientUnits="userSpaceOnUse">
<stop stop-color="#00AEE9"/>
<stop offset="1" stop-color="#69FABD"/>
</linearGradient>
<clipPath id="clip0_528_10592">
<rect width="48" height="48" fill="white" transform="matrix(0.866025 0.5 -2.20305e-08 1 0 0)"/>
</clipPath>
</defs>
</svg>
