<svg width="43" height="72" viewBox="0 0 43 72" fill="none" xmlns="http://www.w3.org/2000/svg">
<g clip-path="url(#clip0_528_10589)">
<path d="M25.6712 29.5157C25.6712 23.1653 23.1563 16.2446 21.2285 13.3444C21.2285 13.3444 21.0917 13.1701 21.0917 13.4322C20.9351 25.6137 15.8271 26.0244 12.9893 28.8421C6.49177 35.4444 12.5392 50.2666 18.6845 55.8996C22.1387 59.0615 17.882 53.3512 17.3438 46.2016C16.7077 37.5181 25.6712 36.3785 25.6712 29.5157Z" fill="#059BDC"/>
<path d="M29.115 34.7206C29.0856 34.6679 29.0268 34.634 28.9681 34.6358C28.9681 34.6358 28.9683 34.6358 28.9389 34.6546C28.8215 36.231 27.3341 38.9346 25.465 41.1082C19.1143 48.4982 22.735 55.9024 24.7801 59.9427C25.9544 62.3006 24.7801 59.9428 27.7353 59.9333C27.9604 59.9202 33.4794 59.5442 34.0861 51.8165C34.683 44.2976 30.5828 36.9978 29.115 34.7206Z" fill="#059BDC"/>
</g>
<defs>
<clipPath id="clip0_528_10589">
<rect width="48" height="48" fill="white" transform="matrix(0.866025 0.5 -2.20305e-08 1 0.519043 0)"/>
</clipPath>
</defs>
</svg>
