<svg width="42" height="72" viewBox="0 0 42 72" fill="none" xmlns="http://www.w3.org/2000/svg">
<g clip-path="url(#clip0_528_10598)">
<path fill-rule="evenodd" clip-rule="evenodd" d="M9.46257 45.9379C12.5713 50.5844 16.5056 54.5593 20.7843 57.0297C25.1097 59.5269 29.0829 60.0801 32.2072 58.9761L20.6718 39.0618L9.46257 45.9379ZM34.0705 58.0563C37.1278 56.0591 39.0002 52.0789 39.0002 46.5127C39.0002 41.6125 37.5269 36.083 34.9222 30.8784L22.4557 38.0049L34.0705 58.0563ZM33.1853 27.7347C30.0134 22.5074 25.6958 17.8415 20.6157 14.8069L8.37449 42.3933L19.7441 35.4188L19.752 35.4139L19.76 35.4093L33.1853 27.7347ZM17.1184 14.9245L2.99256 25.1712C2.71934 25.3694 2.56529 25.7412 2.57952 26.2247C2.70941 30.6405 3.97839 35.3798 6.05202 39.8634L17.1184 14.9245Z" fill="url(#paint0_linear_528_10598)"/>
<path fill-rule="evenodd" clip-rule="evenodd" d="M9.46257 45.9379C12.5713 50.5844 16.5056 54.5593 20.7843 57.0297C25.1097 59.5269 29.0829 60.0801 32.2072 58.9761L20.6718 39.0618L9.46257 45.9379ZM34.0705 58.0563C37.1278 56.0591 39.0002 52.0789 39.0002 46.5127C39.0002 41.6125 37.5269 36.083 34.9222 30.8784L22.4557 38.0049L34.0705 58.0563ZM33.1853 27.7347C30.0134 22.5074 25.6958 17.8415 20.6157 14.8069L8.37449 42.3933L19.7441 35.4188L19.752 35.4139L19.76 35.4093L33.1853 27.7347ZM17.1184 14.9245L2.99256 25.1712C2.71934 25.3694 2.56529 25.7412 2.57952 26.2247C2.70941 30.6405 3.97839 35.3798 6.05202 39.8634L17.1184 14.9245Z" fill="url(#paint1_radial_528_10598)"/>
</g>
<defs>
<linearGradient id="paint0_linear_528_10598" x1="26.8459" y1="16.1796" x2="-1.61972" y2="39.0586" gradientUnits="userSpaceOnUse">
<stop offset="0.104167" stop-color="#FF9A03"/>
<stop offset="0.625" stop-color="#FC3300"/>
<stop offset="1" stop-color="#7E1C24"/>
</linearGradient>
<radialGradient id="paint1_radial_528_10598" cx="0" cy="0" r="1" gradientUnits="userSpaceOnUse" gradientTransform="translate(28.0132 53.526) rotate(77.9843) scale(58.8777 40.6254)">
<stop stop-color="#D5006F"/>
<stop offset="1" stop-color="#FA3B05" stop-opacity="0"/>
</radialGradient>
<clipPath id="clip0_528_10598">
<rect width="48" height="48" rx="24" transform="matrix(0.866025 0.5 -2.20305e-08 1 0 0)" fill="white"/>
</clipPath>
</defs>
</svg>
