<svg width="43" height="72" viewBox="0 0 43 72" fill="none" xmlns="http://www.w3.org/2000/svg">
<g clip-path="url(#clip0_528_10595)">
<path d="M31.7482 24.0711L24.5201 32.2979C24.0203 32.8538 24.9815 34.431 25.6735 34.1194L32.7863 31.0704C32.9785 31.0036 33.2477 31.2923 33.2477 31.6035L33.2476 53.959C33.2476 54.2701 32.9016 54.2037 32.7478 53.8927L11.2173 11.6843C10.5253 10.3069 9.52567 9.19645 8.4107 8.55272L7.64175 8.10877C5.64249 6.9545 3.98926 7.91111 3.98926 10.2667L3.98926 41.7333C3.98926 44.0889 5.64249 46.9545 7.6802 48.131C8.94896 48.8635 10.1408 48.7961 10.8329 47.9067L18.061 39.6799C18.5608 39.124 17.5996 37.5468 16.9075 37.8584L9.7948 40.8629C9.60256 40.9297 9.33343 40.641 9.33343 40.3299L9.33343 18.0188C9.33343 17.7077 9.67946 17.7741 9.83325 18.0851L31.3637 60.2935C32.0558 61.6709 33.0939 62.8036 34.1704 63.4251L34.9393 63.869C36.977 65.0455 38.6303 64.0889 38.6303 61.7333L38.6303 30.2667C38.6303 27.9111 36.977 25.0455 34.9393 23.869C33.6321 23.1143 32.4403 23.1817 31.7482 24.0711Z" fill="white"/>
</g>
<defs>
<clipPath id="clip0_528_10595">
<rect width="48" height="48" fill="white" transform="matrix(0.866025 0.5 -2.20305e-08 1 0.525391 0)"/>
</clipPath>
</defs>
</svg>
