<svg width="43" height="72" viewBox="0 0 43 72" fill="none" xmlns="http://www.w3.org/2000/svg">
<g clip-path="url(#clip0_528_10643)">
<path d="M30.658 34.7224C30.0037 33.9052 29.2404 33.4645 28.5316 33.4947L23.5157 33.9884L20.1354 34.2338L15.2284 34.7905C14.5742 34.8521 13.8108 34.4114 13.1021 33.5628L9.23106 28.6287C8.5768 27.8115 8.14063 26.7437 8.14063 25.8021L8.14063 20.6549C8.14063 19.8388 8.52228 19.2432 9.23106 19.0874L13.1021 18.7487C13.7563 18.687 14.5196 19.1277 15.2284 19.9763L19.0994 24.9105C19.7537 25.7276 20.1899 26.7954 20.1899 27.737L20.1899 31.1267L23.5702 30.8186L23.5702 27.3033C23.5702 26.4873 23.1885 25.4509 22.4797 24.4768L15.3374 15.5197C14.6832 14.7026 13.9199 14.2619 13.2111 14.2921L5.85068 15.0015C5.1419 15.0317 4.76025 15.6274 4.76025 16.4434L4.76025 26.1103C4.76025 26.9263 5.1419 27.9627 5.85068 28.9368L13.1021 37.9568C13.7563 38.774 14.5196 39.2147 15.2284 39.1845L20.1354 38.6906L23.5157 38.3824L28.4226 37.8886C29.0769 37.8269 29.8402 38.2676 30.549 39.1162L34.42 43.9248C35.0742 44.7419 35.5104 45.8098 35.5104 46.7513L35.5104 51.8986C35.5104 52.7146 35.1287 53.3103 34.42 53.4661L30.658 53.8677C30.0037 53.9294 29.2404 53.4887 28.5316 52.64L24.6606 47.8315C24.0063 47.0144 23.5702 45.9465 23.5702 45.0049L23.5702 41.678L20.1899 41.9862L20.1899 45.3759C20.1899 46.1919 20.5715 47.2283 21.2803 48.2024L28.5316 57.2224C29.1859 58.0395 29.9492 58.4802 30.658 58.45L37.9094 57.8032C38.5636 57.7416 38.9998 57.1773 38.9998 56.2358L38.9998 46.4434C38.9998 45.6273 38.6181 44.591 37.9094 43.6168L30.658 34.7224Z" fill="#7052CC"/>
</g>
<defs>
<clipPath id="clip0_528_10643">
<rect width="48" height="48" fill="white" transform="matrix(0.866025 0.5 -2.20305e-08 1 0.507812 0)"/>
</clipPath>
</defs>
</svg>
