<svg width="42" height="72" viewBox="0 0 42 72" fill="none" xmlns="http://www.w3.org/2000/svg">
<g clip-path="url(#clip0_528_10577)">
<path d="M9.66371 37.6662C9.84322 37.557 10.1424 37.5879 10.4416 37.7606L36.9488 53.0645C37.4275 53.3409 37.6669 54.1886 37.3078 54.407L32.0423 57.6104C31.8628 57.7197 31.5636 57.6888 31.2644 57.5161L4.81703 42.2467C4.33835 41.9703 4.09902 41.1226 4.45803 40.9042L9.66371 37.6662Z" fill="url(#paint0_linear_528_10577)" fill-opacity="0.92"/>
<path d="M9.6637 14.4663C9.84321 14.3571 10.1424 14.3879 10.4416 14.5607L36.9488 29.8646C37.4275 30.141 37.6668 30.9887 37.3078 31.2071L32.0423 34.4105C31.8628 34.5197 31.5636 34.4889 31.2644 34.3162L4.81702 19.0468C4.33833 18.7704 4.099 17.9227 4.45802 17.7043L9.6637 14.4663Z" fill="url(#paint1_linear_528_10577)" fill-opacity="0.92"/>
<path d="M32.1021 38.9144C31.9226 38.5979 31.6234 38.2833 31.3243 38.1105L4.81703 22.8066C4.33835 22.5302 4.09902 23.1015 4.45803 23.7345L9.72357 33.0181C9.90308 33.3345 10.2022 33.6492 10.5014 33.8219L37.0086 49.1259C37.4873 49.4022 37.7267 48.8309 37.3677 48.198L32.1021 38.9144Z" fill="url(#paint2_linear_528_10577)" fill-opacity="0.92"/>
</g>
<defs>
<linearGradient id="paint0_linear_528_10577" x1="20.9128" y1="20.6063" x2="7.51832" y2="43.8063" gradientUnits="userSpaceOnUse">
<stop stop-color="#14E6AD"/>
<stop offset="1" stop-color="#A964DE"/>
</linearGradient>
<linearGradient id="paint1_linear_528_10577" x1="20.9128" y1="20.6063" x2="7.51832" y2="43.8063" gradientUnits="userSpaceOnUse">
<stop stop-color="#14E6AD"/>
<stop offset="1" stop-color="#A964DE"/>
</linearGradient>
<linearGradient id="paint2_linear_528_10577" x1="20.9128" y1="20.6063" x2="7.51832" y2="43.8063" gradientUnits="userSpaceOnUse">
<stop stop-color="#14E6AD"/>
<stop offset="1" stop-color="#A964DE"/>
</linearGradient>
<clipPath id="clip0_528_10577">
<rect width="48" height="48" fill="white" transform="matrix(0.866025 0.5 -2.20305e-08 1 0.00195312 0)"/>
</clipPath>
</defs>
</svg>
