<svg width="43" height="72" viewBox="0 0 43 72" fill="none" xmlns="http://www.w3.org/2000/svg">
<path fill-rule="evenodd" clip-rule="evenodd" d="M20.1533 17.2493C16.3193 15.4213 12.8426 15.2283 10.1378 16.6929C8.71615 17.4628 7.88995 18.2715 7.03155 19.7334C5.81943 21.7975 5.28565 24.2804 5.38518 27.392C5.43034 28.8037 5.38688 29.1328 5.08813 29.6412C4.77421 30.1753 4.31026 30.3572 3.27265 30.3528L2.44177 30.3493L2.44085 32.1685C2.44025 33.3736 2.46112 34 2.5027 34.0241C2.53727 34.044 2.98236 34.06 3.49185 34.0597C4.0014 34.0594 5.25369 34.0666 6.2748 34.0759C7.29591 34.0851 9.40508 34.1018 10.9619 34.1129C12.5186 34.1239 14.6004 34.1396 15.588 34.1476C16.5757 34.1556 17.9863 34.1659 18.7229 34.1705C20.6427 34.1825 22.8334 34.1992 26.4839 34.2298C28.2416 34.2444 30.2549 34.2593 30.9579 34.2627C31.661 34.2661 33.0854 34.2767 34.1232 34.2861C35.161 34.2957 36.3663 34.3031 36.8015 34.3027C37.2367 34.3022 38.2571 34.3093 39.069 34.3183L40.5451 34.3348L40.5451 32.4751L40.5451 30.6154L40.2864 30.6242C40.1441 30.629 38.8498 30.6198 37.4102 30.6038C35.9706 30.5877 34.3819 30.5744 33.8797 30.5742C33.3775 30.5741 32.1723 30.567 31.2014 30.5585C30.2305 30.5501 28.8609 30.5404 28.1579 30.5371C27.4548 30.5337 25.4415 30.5188 23.6839 30.5041C21.9262 30.4893 19.7896 30.4724 18.9359 30.4665C16.3675 30.4488 14.5568 30.435 12.6967 30.4191C11.7258 30.4108 10.3748 30.403 9.69446 30.402C9.01411 30.4008 8.43931 30.3691 8.41709 30.3315C8.33997 30.2007 8.32889 27.3921 8.40303 26.7622C8.88263 22.6867 10.9914 20.0703 14.2313 19.5308C14.9753 19.4068 16.3383 19.4366 17.1435 19.5942C18.6168 19.8827 19.8892 20.3763 21.4316 21.258C23.5425 22.4646 25.4358 24.0301 27.2448 26.0645L27.9752 26.8859L29.4323 26.8933C30.2337 26.8973 30.8977 26.8766 30.9079 26.8474C30.9404 26.7543 29.6579 25.1289 28.6294 23.9598C27.144 22.2713 25.574 20.8147 23.8056 19.4848C23.189 19.021 20.7912 17.5533 20.1533 17.2493ZM39.5407 37.9806C39.0385 37.9819 37.5867 37.9738 36.3145 37.9626C33.7286 37.9396 28.9816 37.903 26.5752 37.8875C25.7048 37.8818 23.5271 37.8645 21.736 37.8491C19.9449 37.8336 17.959 37.8192 17.3229 37.8171C16.6868 37.8149 15.2213 37.8054 14.0663 37.7957C12.9112 37.7862 11.0486 37.7712 9.92705 37.7624C8.80551 37.7535 6.66255 37.7352 5.16494 37.7215L2.44195 37.6966L2.44098 39.5543L2.43994 41.412L4.67694 41.4316C5.90732 41.4424 7.29743 41.4509 7.76614 41.4505C8.23484 41.4501 9.57704 41.4596 10.7488 41.4717C11.9206 41.4837 13.3176 41.4944 13.8532 41.4954C14.3889 41.4964 15.7859 41.5072 16.9576 41.5192C18.1294 41.5312 19.5812 41.5428 20.1838 41.5448C20.7864 41.547 22.0738 41.5555 23.0447 41.564C26.0596 41.5902 27.988 41.6049 29.2535 41.6112C29.9231 41.6146 31.3933 41.6245 32.5207 41.6333L34.5705 41.6493L34.6208 42.0716C34.7087 42.81 34.6719 44.8758 34.5568 45.6595C33.8921 50.1902 31.2119 52.7331 27.2448 52.5971C26.0031 52.5546 24.8382 52.2908 23.432 51.7335C22.5438 51.3816 20.4217 50.1547 19.5446 49.486C18.1505 48.4231 16.9649 47.3281 15.7881 46.0163L15.0187 45.1587L13.5551 45.1427C12.7501 45.134 12.0838 45.1482 12.0744 45.1743C12.0415 45.2655 13.3135 46.8783 14.3125 48.0122C15.836 49.7413 17.1437 50.974 18.9361 52.3703C19.6128 52.8974 19.8952 53.0775 21.4925 54C23.0857 54.9201 23.3768 55.0708 24.0736 55.3367C27.5363 56.6579 30.45 56.6702 32.8807 55.3736C34.9647 54.262 36.4275 52.2411 37.1356 49.4954C37.524 47.9891 37.5846 47.4232 37.5991 45.1676C37.6129 43.0156 37.6331 42.8493 37.9417 42.3443C38.2447 41.8485 38.6982 41.6779 39.6872 41.6881L40.5451 41.6969L40.5451 39.8624C40.5451 38.8535 40.5246 38.0167 40.4994 38.003C40.4743 37.9893 40.0429 37.9792 39.5407 37.9806Z" fill="#3829D2"/>
</svg>
