<svg width="42" height="72" viewBox="0 0 42 72" fill="none" xmlns="http://www.w3.org/2000/svg">
<g clip-path="url(#clip0_528_10584)">
<g clip-path="url(#clip1_528_10584)">
<path d="M3.67175 26.2301C3.7208 25.9538 3.72082 25.6493 3.72082 25.3448C3.76986 24.764 3.81889 24.1834 3.91698 23.6309C4.06412 22.9241 4.16221 22.1281 4.40744 21.5388C4.50554 21.23 4.60363 20.9212 4.75077 20.6407C4.99601 21.0868 5.19221 21.5655 5.43744 22.0117C5.87885 22.8755 6.32026 23.7394 6.71262 24.575C7.0069 25.1712 7.30117 25.7675 7.59545 26.3637C8.03687 27.2276 8.42924 28.0632 8.8216 28.8988C8.87065 28.988 8.91972 29.1382 8.96877 29.2883C9.214 29.8562 9.45923 30.4241 9.70446 30.992C10.0968 31.8885 10.4401 32.6957 10.7835 33.5639C11.1758 34.4604 11.5192 35.3894 11.8625 36.2576C12.2548 37.2759 12.5982 38.2659 12.8925 39.2276C13.1377 39.9173 13.2848 40.5504 13.481 41.2118C13.7753 42.1125 13.8734 42.9609 14.0205 43.8376C14.3148 45.2865 14.2167 46.5698 14.2167 47.9097C14.2167 48.3969 14.2167 48.8841 14.1677 49.2821C14.1186 49.802 14.1186 50.2892 14.0205 50.7808C13.9715 50.996 13.8734 50.9394 13.7262 50.8544C13.4319 50.6236 13.1377 50.3319 12.8434 49.9793C12.3529 49.4525 11.9115 48.8931 11.4701 48.2728C10.8815 47.5067 10.293 46.6797 9.7535 45.82C9.41017 45.2564 9.06686 44.6928 8.72353 44.1291C8.13498 43.1194 7.59545 42.0771 7.10499 41.0631C6.71261 40.2275 6.36932 39.4811 6.02599 38.613C5.58458 37.5664 5.24123 36.5154 4.89791 35.4037C4.70173 34.7422 4.5546 34.1092 4.35841 33.4478C4.11318 32.5144 4.0151 31.666 3.81891 30.7609C3.62273 29.6733 3.57367 28.6705 3.52462 27.6677C3.52462 27.6068 3.52463 27.5459 3.47559 27.5176C3.67177 27.2045 3.67175 26.7172 3.67175 26.2301Z" fill="#5493F0"/>
<path opacity="0.7" d="M31.7268 27.445C31.5796 27.2382 31.4325 27.0315 31.3344 26.853C30.6477 25.8475 29.912 24.9356 29.1273 24.0562C28.0482 22.8241 26.9692 21.7139 25.8412 20.6972C24.7622 19.7697 23.6341 18.9358 22.555 18.2519C22.555 18.2519 22.555 18.2518 22.555 18.1909C22.1137 17.9361 21.6723 17.6812 21.2799 17.4547C21.2308 17.4264 21.1327 17.3697 21.0837 17.3414C21.0347 17.374 20.9856 17.3458 20.9856 17.3458C20.1518 16.9253 19.3181 16.5657 18.4842 16.267C17.3561 15.8593 16.2772 15.6627 15.2472 15.6162C15.3453 15.7946 15.4434 15.7903 15.5415 15.9079C15.8848 16.2279 16.1791 16.5196 16.3752 16.9983C16.5715 17.4161 16.6205 17.8099 16.5715 18.147C16.4734 18.8212 16.1791 19.1994 15.8358 19.5494C15.5905 19.7732 15.2962 19.9687 14.9529 20.075C14.5605 20.2748 14.1192 20.3854 13.6777 20.4351C13.3835 20.4479 13.1382 20.5499 12.8439 20.5627C12.4025 20.6124 11.9611 20.6011 11.4706 20.6225C11.4216 20.655 11.3235 20.5985 11.2744 20.6919C11.4706 21.2924 11.7649 21.8278 12.0592 22.424C12.5496 23.3162 13.0892 24.115 13.6287 24.8528C13.7268 24.7876 13.7759 24.6941 13.8739 24.629C14.3153 24.0921 14.8549 23.7336 15.4434 23.4643C15.8358 23.2645 16.2772 23.1539 16.7676 23.0716C17.5524 22.9156 18.3371 22.8815 19.1218 22.8473C19.6123 22.8869 20.0537 22.8982 20.5442 22.9377C21.2799 22.9971 22.0647 23.1456 22.8493 23.2941C23.487 23.4187 24.1736 23.5714 24.8603 23.7851C25.7921 24.0795 26.724 24.3739 27.6559 24.7901C28.1463 25.0124 28.6368 25.2347 29.0782 25.4896C30.0101 26.0885 30.8929 26.6591 31.7268 27.5668C31.7758 27.5951 31.7758 27.5951 31.8248 27.6235C31.7758 27.5342 31.7268 27.5059 31.7268 27.445Z" fill="#5493F0"/>
<path d="M13.5282 24.7344C13.6263 24.6693 13.6754 24.5758 13.7734 24.5107C14.2148 23.9737 14.7543 23.6152 15.3429 23.346C15.7353 23.1462 16.1766 23.0356 16.6671 22.9533C17.4519 22.7973 18.2366 22.7632 19.0214 22.7291C19.5119 22.7686 19.9532 22.7799 20.4437 22.8194C21.1794 22.8787 21.9642 23.0272 22.7488 23.1758C23.3865 23.3003 24.0731 23.4531 24.7598 23.6668C25.6916 23.9612 26.6235 24.2556 27.5554 24.6718C28.0459 24.8941 28.5363 25.1164 28.9777 25.3713C29.9096 25.9702 30.7924 26.5408 31.6263 27.4485C31.6753 27.4768 31.6753 27.4768 31.7243 27.5052C31.7243 27.5661 31.7734 27.5944 31.7734 27.5335C32.1167 27.9753 32.46 28.539 32.7543 29.0134C33.1467 29.7272 33.5881 30.4083 33.9314 31.1546C34.3238 31.8684 34.6671 32.6148 35.0104 33.3002C35.4028 34.1967 35.7952 35.0932 36.1385 36.0223C36.3347 36.501 36.4818 37.0122 36.6289 37.4626C36.8742 38.0915 37.0213 38.7245 37.1685 39.3576C37.4137 40.1691 37.5608 40.985 37.708 41.8008C38.1494 43.8827 38.1984 45.7991 38.1494 47.7198C38.1004 48.7877 38.0022 49.7664 37.8061 50.7494C37.6589 51.4562 37.5118 52.1631 37.2665 52.7523C37.1685 53.0002 37.0704 53.1872 36.9723 53.4351C36.9232 53.5895 36.7761 53.5655 36.678 53.5697C36.2856 53.5868 35.8442 53.3929 35.4028 53.1989C34.7162 52.8025 34.0785 52.3735 33.3919 51.9162C32.7543 51.4262 32.1167 50.9362 31.43 50.3571C30.2039 49.3446 28.9287 48.182 27.7025 47.0478C27.0649 46.4361 26.4274 45.8852 25.8388 45.3018C24.8578 44.3701 23.926 43.4666 22.9941 42.5023C22.6018 42.093 22.2094 41.6838 21.817 41.3355C21.6208 41.1004 21.4246 40.9262 21.1794 40.6628C20.5418 39.9902 19.9532 39.3459 19.3646 38.6406C18.3837 37.5262 17.4519 36.3791 16.569 35.1385C15.9315 34.2831 15.3429 33.3343 14.8033 32.4138C14.362 31.6108 13.9696 30.7752 13.6263 29.968C13.332 29.2499 13.1849 28.6168 13.0377 27.9228C12.9397 27.379 12.8906 26.8025 12.9397 26.3435C13.0377 25.7912 13.1849 25.328 13.381 24.8931C13.4791 24.8888 13.5282 24.7953 13.5282 24.7344Z" fill="#5493F0"/>
<path opacity="0.7" d="M21.9157 41.3921C22.308 41.7405 22.7004 42.1497 23.0928 42.5589C24.0247 43.4623 25.0056 44.4551 25.9374 45.3585C26.5751 45.9702 27.1636 46.5536 27.8012 47.1045C29.0274 48.2387 30.2536 49.3121 31.5287 50.4137C32.1663 50.9646 32.8039 51.4545 33.4906 51.9728C34.1772 52.491 34.8149 52.92 35.5015 53.2555C35.3053 53.8123 34.962 54.1622 34.7168 54.6905C33.8339 54.5463 33.0001 54.4303 32.1173 54.3469C31.3816 54.2876 30.6459 54.2892 29.9593 54.38C29.5178 54.4296 29.1255 54.5076 28.7331 54.5856C28.2917 54.6961 27.8012 54.7785 27.4088 55.0391C27.1146 55.2346 26.8203 55.3693 26.5751 55.654C26.2318 56.1257 26.0355 56.6215 26.3298 57.5832C25.7903 57.5154 25.2508 57.3866 24.6623 57.1685C24.319 57.0312 24.0247 56.8005 23.7304 56.5087C23.2399 56.0428 22.7985 55.5444 22.4062 54.9524C21.7685 54.0971 21.229 53.2374 20.6896 52.256C20.2972 51.5422 19.9538 50.7958 19.6105 49.9886C19.4143 49.5099 19.2672 48.9987 19.071 48.52C18.7767 47.8019 18.6786 47.0754 18.5315 46.3813C18.3843 45.6874 18.3843 45.0783 18.4824 44.5259C18.5806 44.0344 18.7276 43.5102 18.9729 43.1646C19.2672 42.7255 19.6596 42.4039 20.0519 42.1432C20.5914 41.7238 21.229 41.4829 21.9157 41.3921Z" fill="#5493F0"/>
<path d="M15.1492 15.5596C15.2472 15.738 15.3453 15.7337 15.4435 15.8513C15.7868 16.1713 16.0811 16.463 16.2772 16.9417C16.4734 17.3594 16.5225 17.7533 16.4735 18.0904C16.3753 18.7646 16.0811 19.1428 15.7378 19.4928C15.4925 19.7166 15.1982 19.9121 14.8549 20.0184C14.4625 20.2182 14.0211 20.3288 13.5797 20.3785C13.2854 20.3913 13.0402 20.4933 12.7459 20.5061C12.3045 20.5558 11.8631 20.5445 11.3726 20.5659C11.3236 20.5985 11.2255 20.5418 11.1764 20.6353C11.0293 20.5504 10.9312 20.5546 10.8331 20.5589C9.70505 20.5167 8.47889 20.296 7.30178 19.9818C6.76227 19.8531 6.17372 19.635 5.58517 19.2344C5.43803 19.1494 5.38897 19.0602 5.48707 18.9341C5.58516 18.8689 5.6342 18.7145 5.7323 18.5885C5.97753 18.1819 6.22278 17.8363 6.51705 17.5189C6.86038 17.1081 7.20368 16.7582 7.59605 16.4974C8.08651 16.1106 8.62604 15.6913 9.2146 15.4221C9.90124 15.0877 10.5879 14.8141 11.3726 14.7191C11.814 14.6694 12.2064 14.5305 12.6969 14.6309C13.4326 14.7511 14.1682 14.9932 14.953 15.5681C15.002 15.5355 15.1002 15.5922 15.1492 15.5596Z" fill="#5493F0"/>
<path d="M26.3291 57.5216C26.0349 56.6208 26.231 56.0642 26.5743 55.5924C26.8195 55.3077 27.1139 55.1122 27.4082 54.9776C27.8005 54.7778 28.2419 54.6063 28.7324 54.5241C29.1248 54.446 29.5661 54.3964 29.9585 54.3184C30.6452 54.2276 31.3808 54.2869 32.1165 54.2853C32.9504 54.3404 33.8332 54.4847 34.716 54.629C34.9613 54.7097 35.1574 54.762 35.4027 54.8427C35.5498 54.8667 35.697 54.9517 35.8441 54.9757C36.0403 55.0889 36.0893 55.2391 36.0403 55.3935C35.795 55.8609 35.4517 56.2108 35.1084 56.4999L35.0593 56.5325C34.8141 56.8782 34.4708 57.1672 34.1274 57.3952C33.7841 57.6843 33.4408 57.9124 33.0975 58.1405C32.607 58.4055 32.0675 58.6421 31.5281 58.8179C30.7433 59.0957 29.9095 59.2234 28.9776 59.2335C28.3891 59.2591 27.7515 58.9519 27.0648 58.3727C26.7705 58.2028 26.5743 57.9068 26.3291 57.5216Z" fill="#5493F0"/>
<path d="M31.8272 27.6252C31.7773 27.6583 31.7773 27.6583 31.7773 27.5964C31.7773 27.5344 31.8272 27.6252 31.8272 27.6252Z" fill="#5493F0"/>
</g>
</g>
<defs>
<clipPath id="clip0_528_10584">
<rect width="48" height="48" fill="white" transform="matrix(0.866025 0.5 -2.20305e-08 1 0.0117188 0)"/>
</clipPath>
<clipPath id="clip1_528_10584">
<rect width="40" height="40" fill="white" transform="matrix(0.866025 0.5 -2.20305e-08 1 3.47559 6)"/>
</clipPath>
</defs>
</svg>
