<svg width="43" height="72" viewBox="0 0 43 72" fill="none" xmlns="http://www.w3.org/2000/svg">
<g clip-path="url(#clip0_528_10603)">
<path d="M25.9035 62.6268C22.8742 60.8779 20.6631 58.7763 19.2702 56.3221C17.9799 54.1804 17.2312 51.8306 17.1876 49.7863C17.1719 49.1639 17.2976 48.629 17.5524 48.2343C17.7901 47.9033 18.1334 47.713 18.5472 47.6829C19.0283 47.6894 19.5585 47.8543 20.0961 48.1646C20.6337 48.475 21.1639 48.9223 21.645 49.4714C22.0581 49.9779 22.3998 50.5641 22.6342 51.1682C22.8963 51.8588 23.0268 52.5425 23.0121 53.1491C23.0391 53.8993 22.8528 54.5161 22.4815 54.9053C22.172 55.2193 21.7296 55.3299 21.2207 55.2205C21.7184 56.2243 22.4226 57.1272 23.2106 57.7721C24.0923 58.5706 25.0054 59.2467 25.9235 59.7807C27.139 60.4945 28.3295 60.7793 29.3397 60.5981C30.3876 60.366 31.1692 59.6206 31.5684 58.4724C32.0745 57.1236 32.3215 55.5375 32.2981 53.7863C32.3389 51.9983 32.0685 50.0389 31.502 48.0166C31.0759 46.4148 30.2671 44.7881 29.2003 43.3877C28.2088 42.1057 27.0577 41.0689 25.8844 40.4008C24.8619 39.9084 23.876 39.7176 23.0121 39.845L20.8823 39.8228L20.8823 38.6154L30.4539 29.6232L17.1876 21.9639L17.1876 37.0297C17.1501 38.0953 17.4045 39.3168 17.9173 40.5335C18.1653 41.0779 18.5009 41.5936 18.8913 42.0306C19.2818 42.4675 19.7139 42.811 20.1459 43.0276C20.9441 43.4702 21.716 43.6083 22.348 43.4215C23.0643 43.2415 23.6877 42.8764 24.1921 42.3412C24.2375 42.2225 24.3213 42.1452 24.432 42.1199C24.5208 42.0843 24.6343 42.1019 24.7518 42.1695C24.9822 42.3264 25.2003 42.5571 25.3753 42.8293C25.597 43.2375 25.7177 43.6711 25.7135 44.0445C25.6879 44.2824 25.648 44.5099 25.5941 44.7256C25.1229 45.7432 24.3329 46.3961 23.3188 46.6059C22.3769 46.7827 21.2645 46.5226 20.1273 45.8595C17.255 44.2012 15.2652 42.4123 14.1578 40.493C13.5886 39.4569 13.15 38.3749 12.8675 37.3103C12.585 36.2458 12.4644 35.22 12.5128 34.2931L12.5128 19.2648L5.76514 15.3691L5.76514 12.5699L12.5442 16.4838L12.5442 10.1012L10.9921 7.44907L10.9921 6.01781L15.4959 8.61805L17.1876 10.5849L17.1876 19.1646L34.7122 29.2222L36.457 32.2095L25.7111 38.2145C26.3603 38.2941 27.044 38.5018 27.7407 38.8312C29.1198 39.6957 30.4652 40.9068 31.6683 42.3665C33.0615 43.9196 34.2356 45.7821 35.0515 47.7334C35.7825 49.4084 36.2999 51.1037 36.5771 52.7317C36.8051 54.0212 36.9273 55.2732 36.942 56.4678C36.9491 58.7356 36.4952 60.7086 35.6154 62.2341C34.781 63.7215 33.3768 64.4985 31.6353 64.4364C29.8526 64.4004 27.8909 63.7811 25.9035 62.6268Z" fill="#2C7DF7"/>
</g>
<defs>
<clipPath id="clip0_528_10603">
<rect width="48" height="48" fill="white" transform="matrix(0.866025 0.5 -2.20305e-08 1 0.569336 0)"/>
</clipPath>
</defs>
</svg>
