<svg width="42" height="72" viewBox="0 0 42 72" fill="none" xmlns="http://www.w3.org/2000/svg">
<g clip-path="url(#clip0_528_10641)">
<path fill-rule="evenodd" clip-rule="evenodd" d="M3.90752 5.34413C4.46833 7.54487 18.1213 59.0662 18.1477 59.0814C18.1967 59.1097 38.0002 39.8262 38.0002 39.7502C38.0002 39.7189 36.4214 36.871 34.4918 33.4215L30.9834 27.1497L28.859 25.4286C27.6907 24.482 21.6342 19.5668 15.4003 14.5062C9.16633 9.44542 4.02146 5.27918 3.96713 5.24781C3.89736 5.20753 3.87988 5.23576 3.90752 5.34413ZM13.0148 15.0991C15.1069 16.7978 19.3534 20.2429 22.4514 22.755C25.5495 25.2671 28.1438 27.3805 28.2167 27.4514C28.3314 27.5631 27.8556 27.8186 24.6492 29.3662C22.6142 30.3484 20.9155 31.1288 20.8743 31.1005C20.8114 31.0573 9.59665 12.7969 9.25135 12.1755C9.18769 12.0609 9.15254 11.977 9.17325 11.989C9.19396 12.0009 10.9227 13.4006 13.0148 15.0991ZM14.1195 23.3908C17.3467 28.6601 19.9912 32.9773 19.9962 32.9845C20.0131 33.0089 18.09 52.0381 18.0692 52.0525C18.0548 52.0625 8.2584 15.1105 7.73778 13.0825C7.68292 12.8687 6.95776 11.6973 14.1195 23.3908ZM32.5665 33.4328C34.1274 36.2205 34.5386 36.9925 34.4612 36.9904C34.3321 36.987 23.5904 33.2556 23.5629 33.2046C23.5342 33.1515 30.4596 29.807 30.5228 29.8435C30.5504 29.8594 31.4701 31.4746 32.5665 33.4328ZM34.0288 39.7307C33.8859 39.8639 30.698 42.9669 26.9444 46.6262C23.1909 50.2854 20.1063 53.2544 20.0899 53.2239C20.0734 53.1935 20.466 49.1196 20.9623 44.1711L21.8647 35.1736L27.7908 37.232C31.0502 38.3642 33.8093 39.3175 33.9223 39.3505C34.2853 39.4567 34.293 39.4844 34.0288 39.7307Z" fill="#FF1414"/>
</g>
<defs>
<clipPath id="clip0_528_10641">
<rect width="48" height="48" fill="white" transform="matrix(0.866025 0.5 -2.20305e-08 1 0 0)"/>
</clipPath>
</defs>
</svg>
