<svg width="43" height="72" viewBox="0 0 43 72" fill="none" xmlns="http://www.w3.org/2000/svg">
<g clip-path="url(#clip0_528_10597)">
<path d="M34.0669 59.8306L25.5613 45.0984C23.3066 41.1931 19.651 39.0826 17.3963 40.3843L8.89067 45.2951L3.9917 42.4666L14.9468 36.1417C18.5543 34.0589 24.4033 37.4358 28.0108 43.6842L38.9659 62.659L34.0669 59.8306Z" fill="url(#paint0_linear_528_10597)"/>
<path d="M34.0669 26.4973L25.5613 31.408C23.3066 32.7097 19.651 30.5992 17.3963 26.6939L8.89068 11.9618L3.9917 9.13334L14.9468 28.1082C18.5543 34.3565 24.4033 37.7334 28.0108 35.6506L38.9659 29.3257L34.0669 26.4973Z" fill="url(#paint1_linear_528_10597)"/>
</g>
<defs>
<linearGradient id="paint0_linear_528_10597" x1="14.384" y1="4.46666" x2="53.8917" y2="30.2192" gradientUnits="userSpaceOnUse">
<stop stop-color="#FF8587"/>
<stop offset="0.270833" stop-color="#D185FF"/>
<stop offset="0.548203" stop-color="#29E5FF"/>
<stop offset="0.796875" stop-color="#1FFFF2"/>
<stop offset="1" stop-color="#5FFFBA"/>
</linearGradient>
<linearGradient id="paint1_linear_528_10597" x1="14.384" y1="4.46666" x2="53.8917" y2="30.2192" gradientUnits="userSpaceOnUse">
<stop stop-color="#FF8587"/>
<stop offset="0.270833" stop-color="#D185FF"/>
<stop offset="0.548203" stop-color="#29E5FF"/>
<stop offset="0.796875" stop-color="#1FFFF2"/>
<stop offset="1" stop-color="#5FFFBA"/>
</linearGradient>
<clipPath id="clip0_528_10597">
<rect width="48" height="48" fill="white" transform="matrix(0.866025 0.5 -2.20305e-08 1 0.527344 0)"/>
</clipPath>
</defs>
</svg>
