<svg width="44" height="44" viewBox="0 0 44 44" fill="none" xmlns="http://www.w3.org/2000/svg">
<path d="M20.8392 6.10193C20.9319 6.10193 21.0217 6.07899 21.0387 6.05096C21.0574 6.01998 21.4288 6 21.9861 6C22.5433 6 22.9147 6.01998 22.9335 6.05096C22.9504 6.07899 23.0514 6.10193 23.1578 6.10193C23.2643 6.10193 23.3653 6.12486 23.3822 6.15289C23.3992 6.18092 23.4657 6.20385 23.5301 6.20385C23.5944 6.20385 23.7445 6.25298 23.8636 6.31302C23.9828 6.37305 24.1364 6.44756 24.205 6.47855C24.2735 6.50959 24.3408 6.54679 24.3545 6.56126C24.3787 6.58669 24.6801 6.74743 25.7258 7.29249C26 7.43544 26.2356 7.56489 26.2493 7.58013C26.2631 7.59537 26.4762 7.70993 26.723 7.83469C26.9699 7.95945 27.183 8.07422 27.1967 8.08966C27.2105 8.10511 27.4685 8.24266 27.7702 8.39529C28.0718 8.54793 28.3299 8.68528 28.3436 8.70041C28.3676 8.72707 28.654 8.88001 29.7148 9.43296C29.9891 9.57592 30.2247 9.70516 30.2384 9.72009C30.2521 9.73508 30.4541 9.8474 30.6872 9.96977C31.1662 10.2212 31.9741 10.6515 32.6942 11.0387L33.6665 11.5615C33.9338 11.7052 34.3602 11.9346 34.6139 12.0712C34.8675 12.2077 35.2827 12.4303 35.5363 12.5658C36.2659 12.9554 36.3839 13.0322 36.5969 13.2558C36.7978 13.4666 36.8561 13.5691 36.962 13.8971C37.0193 14.0747 36.9922 14.2368 36.8508 14.5619C36.7703 14.747 36.2739 15.2444 36.0848 15.3294C35.9957 15.3694 35.9228 15.4195 35.9228 15.4407C35.9228 15.4619 35.8988 15.4792 35.8694 15.4792C35.8401 15.4792 35.7182 15.548 35.5987 15.6321C35.4791 15.7162 35.3669 15.785 35.3494 15.785C35.3318 15.785 35.2196 15.8538 35.1 15.9379C34.9805 16.022 34.8683 16.0908 34.8507 16.0908C34.8332 16.0908 34.721 16.1596 34.6014 16.2437C34.4818 16.3278 34.3696 16.3966 34.3521 16.3966C34.3345 16.3966 34.2224 16.4654 34.1028 16.5495C33.9832 16.6336 33.8722 16.7024 33.8562 16.7024C33.8283 16.7024 33.6737 16.8005 32.9191 17.2968C32.7343 17.4184 32.5706 17.5178 32.5554 17.5178C32.5401 17.5178 32.3613 17.6325 32.1581 17.7726C31.9549 17.9128 31.7749 18.0274 31.758 18.0274C31.7411 18.0274 31.6295 18.0962 31.5099 18.1803C31.3903 18.2644 31.2781 18.3332 31.2606 18.3332C31.243 18.3332 31.1308 18.402 31.0113 18.4861C30.8917 18.5702 30.7795 18.639 30.762 18.639C30.7444 18.639 30.6322 18.7078 30.5126 18.7919C30.3931 18.876 30.2809 18.9448 30.2633 18.9448C30.2458 18.9448 30.1336 19.0136 30.014 19.0977C29.8944 19.1818 29.7822 19.2506 29.7647 19.2506C29.7471 19.2506 29.635 19.3194 29.5154 19.4034C29.3958 19.4875 29.284 19.5563 29.2668 19.5563C29.2497 19.5563 29.1035 19.6481 28.942 19.7602C28.7804 19.8723 28.6342 19.964 28.6171 19.964C28.5999 19.964 28.4881 20.0328 28.3685 20.1169C28.249 20.201 28.1368 20.2698 28.1192 20.2698C28.1017 20.2698 27.9895 20.3386 27.8699 20.4227C27.7503 20.5068 27.6385 20.5756 27.6213 20.5756C27.6042 20.5756 27.458 20.6673 27.2965 20.7795C27.1349 20.8916 26.9928 20.9833 26.9806 20.9833C26.9685 20.9833 26.6587 21.1696 26.2923 21.3973C25.9258 21.6249 25.5475 21.8569 25.4515 21.9128C25.3556 21.9688 25.2175 22.0577 25.1447 22.1105C25.0719 22.1633 24.9968 22.2065 24.9778 22.2065C24.9589 22.2065 24.8838 22.2496 24.811 22.3024C24.5748 22.4737 24.0071 22.7861 23.7811 22.8691C23.4991 22.9728 23.3131 23.0219 23.2017 23.0219C23.1337 23.0219 23.0517 23.0488 23.0195 23.0817C22.9438 23.1591 21.1423 23.1566 20.9056 23.0787C20.1323 22.8244 19.9958 22.7609 18.6452 22.0278C18.3984 21.8938 17.9496 21.6528 17.648 21.4923C17.3463 21.3318 16.8751 21.0799 16.6008 20.9325L15.6534 20.4234C15.4066 20.2907 15.0139 20.0788 14.7808 19.9525C14.5477 19.8262 14.1326 19.6021 13.8584 19.4544C13.5841 19.3067 13.169 19.0827 12.9359 18.9565C12.7028 18.8304 12.282 18.6042 12.001 18.4538C11.1038 17.9738 10.4306 17.6129 9.95658 17.3581L9.03412 16.862C8.78041 16.7257 8.40195 16.5224 8.19308 16.4105C7.64493 16.1167 7.37627 15.9147 7.24353 15.6966C7.02603 15.3389 6.95258 15.0134 7.04787 14.8287C7.073 14.7801 7.129 14.66 7.17233 14.5619C7.21571 14.4638 7.2906 14.3377 7.33887 14.2816C7.52576 14.0645 8.27784 13.5358 8.51056 13.458C8.55857 13.4419 8.59782 13.4085 8.59782 13.3838C8.59782 13.3591 8.6218 13.3388 8.65117 13.3388C8.68049 13.3388 8.80235 13.27 8.92193 13.1859C9.0415 13.1018 9.15369 13.033 9.17124 13.033C9.18879 13.033 9.30098 12.9642 9.42056 12.8801C9.54013 12.796 9.65232 12.7272 9.66987 12.7272C9.68742 12.7272 9.79962 12.6584 9.91919 12.5743C10.0388 12.4902 10.1506 12.4214 10.1678 12.4214C10.1849 12.4214 10.3311 12.3297 10.4926 12.2176C10.6542 12.1054 10.8003 12.0137 10.8175 12.0137C10.8346 12.0137 10.9465 11.9449 11.066 11.8608C11.1856 11.7767 11.2978 11.7079 11.3154 11.7079C11.3329 11.7079 11.4451 11.6391 11.5647 11.555C11.6842 11.471 11.7964 11.4022 11.814 11.4022C11.8315 11.4022 11.9437 11.3333 12.0633 11.2493C12.1829 11.1652 12.3028 11.0964 12.3299 11.0964C12.3569 11.0964 12.3866 11.0792 12.3957 11.0581C12.4165 11.0103 12.6821 10.8448 12.7988 10.807C12.8467 10.7914 12.886 10.7584 12.886 10.7337C12.886 10.7089 12.91 10.6887 12.9394 10.6887C12.9687 10.6887 13.0906 10.6199 13.2102 10.5358C13.3297 10.4517 13.4419 10.3829 13.4595 10.3829C13.477 10.3829 13.5892 10.3141 13.7088 10.23C13.8284 10.1459 13.9405 10.0771 13.9581 10.0771C13.9756 10.0771 14.0878 10.0083 14.2074 9.9242C14.327 9.84011 14.4392 9.77131 14.4567 9.77131C14.4743 9.77131 14.5865 9.70251 14.706 9.61842C14.8256 9.53433 14.9378 9.46553 14.9554 9.46553C14.9729 9.46553 15.0851 9.39673 15.2047 9.31264C15.3242 9.22855 15.4361 9.15975 15.4532 9.15975C15.4704 9.15975 15.6165 9.06801 15.7781 8.95589C15.9397 8.84377 16.0858 8.75204 16.103 8.75204C16.1201 8.75204 16.232 8.68324 16.3515 8.59915C16.4711 8.51506 16.593 8.44626 16.6223 8.44626C16.6516 8.44626 16.6756 8.42597 16.6756 8.40126C16.6756 8.37649 16.7149 8.34351 16.7629 8.32792C16.8483 8.30025 17.125 8.13991 17.1743 8.08951C17.188 8.0755 17.2497 8.03539 17.3114 8.00032L17.5358 7.87292C17.5975 7.8379 17.6592 7.79774 17.6729 7.78373C17.7222 7.73333 17.9989 7.57299 18.0843 7.54532C18.1322 7.52973 18.1715 7.49675 18.1715 7.47198C18.1715 7.44727 18.1955 7.42698 18.2249 7.42698C18.2542 7.42698 18.3761 7.35818 18.4956 7.27409C18.6152 7.19 18.7274 7.1212 18.745 7.1212C18.7625 7.1212 18.8747 7.0524 18.9943 6.96831C19.1138 6.88422 19.226 6.81542 19.2436 6.81542C19.2611 6.81542 19.3693 6.75166 19.4839 6.67369C19.6846 6.53731 19.8507 6.45067 20.1162 6.344C20.1847 6.31643 20.2798 6.27362 20.3274 6.24886C20.375 6.22409 20.4578 6.20385 20.5115 6.20385C20.5651 6.20385 20.6228 6.18092 20.6398 6.15289C20.6567 6.12486 20.7465 6.10193 20.8392 6.10193Z" fill="url(#paint0_linear_1691_10373)"/>
<path d="M33.5134 19.7581C33.5359 19.757 33.644 19.6891 33.7537 19.6073C33.9948 19.4276 34.0692 19.4219 34.3132 19.5648C34.4169 19.6256 34.7036 19.7831 34.9505 19.9148C36.0372 20.4948 36.1795 20.5739 36.3334 20.684C36.5377 20.8302 36.7892 21.1037 36.8556 21.2522C37.0396 21.6637 37.0387 21.8346 36.8508 22.2535C36.7765 22.4193 36.3251 22.8761 36.1434 22.9693C36.0632 23.0106 35.9038 23.108 35.7892 23.1859C35.6745 23.2639 35.5667 23.3277 35.5496 23.3277C35.5324 23.3277 35.3863 23.4194 35.2247 23.5315C35.0631 23.6436 34.917 23.7354 34.8998 23.7354C34.8827 23.7354 34.7708 23.8042 34.6513 23.8883C34.5317 23.9723 34.4199 24.0411 34.4027 24.0411C34.3856 24.0411 34.2394 24.1329 34.0779 24.245C33.9163 24.3571 33.7701 24.4489 33.753 24.4489C33.7358 24.4489 33.624 24.5177 33.5044 24.6017C33.3849 24.6858 33.2727 24.7546 33.2551 24.7546C33.2376 24.7546 33.1254 24.8234 33.0058 24.9075C32.8862 24.9916 32.774 25.0604 32.7565 25.0604C32.7389 25.0604 32.6267 25.1292 32.5072 25.2133C32.3876 25.2974 32.2754 25.3662 32.2578 25.3662C32.2403 25.3662 32.1281 25.435 32.0085 25.5191C31.889 25.6032 31.7762 25.672 31.7579 25.672C31.7397 25.672 31.6652 25.7151 31.5924 25.7679C31.5196 25.8207 31.3815 25.9094 31.2855 25.965C31.1895 26.0206 30.9203 26.1869 30.6872 26.3345C30.4541 26.4822 30.196 26.6427 30.1137 26.6913C30.0315 26.7398 29.7734 26.9004 29.5403 27.048C29.3072 27.1956 29.0379 27.3617 28.942 27.417C28.846 27.4723 28.745 27.5356 28.7176 27.5576C28.6901 27.5797 28.5892 27.643 28.4932 27.6983C28.3972 27.7536 28.1279 27.9196 27.8948 28.0673C27.6617 28.2149 27.4037 28.3755 27.3214 28.424C27.2391 28.4726 26.9811 28.6331 26.748 28.7808C26.5149 28.9284 26.2456 29.0947 26.1496 29.1503C26.0536 29.2059 25.9156 29.2945 25.8428 29.3473C25.77 29.4001 25.6949 29.4433 25.6759 29.4433C25.657 29.4433 25.5819 29.4865 25.5091 29.5393C25.4363 29.5921 25.2982 29.6807 25.2022 29.7363C25.1062 29.7919 24.8482 29.9502 24.6288 30.0881C24.1806 30.3698 23.8753 30.5196 23.5817 30.6021C22.6161 30.873 22.2385 30.9108 21.4432 30.8163C20.5032 30.7045 20.4545 30.6831 17.4111 29.0428L16.4388 28.5191C16.1714 28.3752 15.7619 28.1542 15.5288 28.0281C15.2957 27.9019 14.8806 27.6789 14.6063 27.5325C14.3321 27.3861 13.8833 27.1452 13.6091 26.9972C13.3348 26.8493 12.8636 26.5968 12.5619 26.4362C12.2603 26.2756 11.8115 26.0346 11.5647 25.9008C11.3178 25.7669 10.8691 25.5262 10.5674 25.3658C10.2657 25.2055 9.85063 24.9826 9.64494 24.8704C9.43925 24.7583 9.08024 24.5635 8.84713 24.4375C7.46607 23.6916 7.41781 23.6594 7.22329 23.3554C7.02987 23.0532 6.93304 22.5619 7.05206 22.4868C7.07948 22.4694 7.10247 22.4165 7.10317 22.3691C7.10581 22.1838 7.45665 21.7975 7.89694 21.4949C8.14321 21.3256 8.35832 21.1872 8.37498 21.1872C8.39168 21.1872 8.50318 21.1184 8.62275 21.0343C8.74232 20.9502 8.85451 20.8814 8.87206 20.8814C8.88961 20.8814 9.00181 20.8126 9.12138 20.7285C9.24095 20.6444 9.35314 20.5756 9.37069 20.5756C9.38824 20.5756 9.4964 20.5119 9.61103 20.4339C9.96576 20.1927 10.0818 20.1453 10.1585 20.2104C10.196 20.2422 10.4605 20.3916 10.7461 20.5424C11.0318 20.6931 11.4674 20.9259 11.7143 21.0596C11.9611 21.1934 12.3874 21.4227 12.6617 21.5693C12.9359 21.7158 13.3622 21.9452 13.6091 22.0789C13.8559 22.2127 14.2822 22.4422 14.5565 22.589C15.9139 23.3157 16.198 23.4674 16.7754 23.7742C18.6976 24.7958 19.3782 25.1497 19.5677 25.2259C19.6363 25.2536 19.7313 25.2964 19.7789 25.3212C19.8265 25.346 19.9062 25.3662 19.9559 25.3662C20.0057 25.3662 20.0677 25.3868 20.0937 25.412C20.1198 25.4371 20.2309 25.4704 20.3406 25.486C20.4503 25.5016 20.6859 25.5425 20.8641 25.5771C21.0424 25.6116 21.5585 25.6399 22.011 25.6399C22.7851 25.6399 23.1226 25.6047 23.6565 25.4682C23.7799 25.4367 23.9428 25.3982 24.0186 25.3827C24.0943 25.3672 24.1686 25.3341 24.1836 25.3094C24.1986 25.2846 24.2566 25.2643 24.3125 25.2643C24.4375 25.2643 25.2012 24.8943 25.4854 24.6961C25.6001 24.6162 25.7082 24.5508 25.7258 24.5508C25.7433 24.5508 25.8555 24.482 25.9751 24.3979C26.0947 24.3138 26.2075 24.245 26.2257 24.245C26.244 24.245 26.3185 24.2018 26.3913 24.149C26.4641 24.0962 26.6078 24.0045 26.7106 23.9452L27.0846 23.7294C27.1874 23.6701 27.3311 23.5783 27.4039 23.5255C27.4767 23.4727 27.5505 23.4296 27.5679 23.4296C27.5852 23.4296 27.7997 23.292 28.0444 23.1238C28.2891 22.9556 28.503 22.818 28.5197 22.818C28.5364 22.818 28.6479 22.7492 28.7674 22.6651C28.887 22.581 28.9992 22.5122 29.0167 22.5122C29.0343 22.5122 29.1465 22.4434 29.2661 22.3593C29.3856 22.2753 29.4978 22.2065 29.5154 22.2065C29.5329 22.2065 29.6451 22.1376 29.7647 22.0536C29.8843 21.9695 29.9965 21.9007 30.014 21.9007C30.0316 21.9007 30.1438 21.8319 30.2633 21.7478C30.3829 21.6637 30.4951 21.5949 30.5126 21.5949C30.5302 21.5949 30.6424 21.5261 30.762 21.442C30.8815 21.3579 30.9937 21.2891 31.0113 21.2891C31.0288 21.2891 31.141 21.2203 31.2606 21.1362C31.3802 21.0521 31.4923 20.9833 31.5099 20.9833C31.5275 20.9833 31.6396 20.9145 31.7592 20.8304C31.8788 20.7463 31.991 20.6775 32.0085 20.6775C32.0261 20.6775 32.1383 20.6087 32.2578 20.5246C32.3774 20.4406 32.4896 20.3718 32.5072 20.3718C32.5247 20.3718 32.6369 20.303 32.7565 20.2189C32.8761 20.1348 32.9882 20.066 33.0058 20.066C33.0233 20.066 33.1355 19.9972 33.2551 19.9131C33.3747 19.829 33.4909 19.7593 33.5134 19.7581Z" fill="url(#paint1_linear_1691_10373)"/>
<path d="M32.8562 27.8126C32.9385 27.7631 33.1393 27.6395 33.3024 27.538C33.5881 27.3602 33.7084 27.3423 33.8535 27.4564C33.8809 27.478 34.1221 27.6128 34.3895 27.756C34.6569 27.8991 35.0945 28.135 35.3618 28.28C35.6292 28.425 35.9557 28.5997 36.0874 28.6681C36.4646 28.8641 36.8367 29.2668 36.939 29.5898C37.0132 29.8238 37.017 29.8989 36.965 30.1061C36.8951 30.385 36.6516 30.7513 36.412 30.938C36.2688 31.0496 34.7268 32.0175 34.2274 32.3092C34.1315 32.3652 33.9934 32.4543 33.9206 32.5071C33.8478 32.5599 33.7733 32.603 33.755 32.603C33.7368 32.603 33.624 32.6718 33.5044 32.7559C33.3849 32.84 33.2721 32.9088 33.2538 32.9088C33.2356 32.9088 33.1611 32.952 33.0883 33.0048C33.0155 33.0576 32.8774 33.1466 32.7814 33.2027C32.6854 33.2588 32.1918 33.5623 31.6844 33.8771C31.1771 34.192 30.6946 34.4902 30.6124 34.5398C30.5301 34.5894 29.9355 34.9563 29.291 35.3551C28.6465 35.7539 28.0407 36.1261 27.9447 36.1823C27.8487 36.2384 27.7106 36.3275 27.6378 36.3803C27.565 36.4331 27.4899 36.4763 27.471 36.4763C27.452 36.4763 27.3769 36.5194 27.3041 36.5722C27.2313 36.625 27.0933 36.7141 26.9973 36.7703C26.9013 36.8265 26.2955 37.1996 25.651 37.5994C25.0065 37.9993 24.367 38.3893 24.2299 38.466C23.5314 38.8568 22.3071 39.0789 21.4284 38.9741C20.5966 38.8749 20.1982 38.7088 18.2214 37.6369C17.9883 37.5105 17.5788 37.2894 17.3114 37.1455L16.3515 36.6292L15.4041 36.1195L14.4567 35.6099L13.5093 35.1003L12.5619 34.5906L11.6145 34.081C11.354 33.9408 10.9333 33.7143 10.6796 33.5776C10.4259 33.4408 9.97713 33.2 9.68234 33.0425C9.3875 32.8849 8.91629 32.6322 8.63521 32.481C8.35408 32.3298 8.02314 32.1521 7.89973 32.0861C7.41965 31.8292 7.00035 31.2552 7.00294 30.8584C7.00469 30.5928 7.20863 30.181 7.44683 29.9619C7.59906 29.822 8.27999 29.3414 8.32606 29.3414C8.34366 29.3414 8.41761 29.2982 8.49041 29.2454C8.56321 29.1926 8.70128 29.1036 8.79727 29.0476C8.89325 28.9916 9.30512 28.7391 9.71251 28.4866L10.4533 28.0275L10.9342 28.2827C11.1987 28.4231 11.6058 28.6416 11.8389 28.7684C12.072 28.8952 12.4984 29.1246 12.7863 29.2782C13.0743 29.4318 13.5006 29.6612 13.7337 29.7879C13.9668 29.9145 14.3932 30.1439 14.6811 30.2975C15.1749 30.561 15.4857 30.7281 16.5884 31.3229C18.6175 32.4175 19.5207 32.8825 19.7671 32.9592C19.8906 32.9977 20.014 33.0452 20.0414 33.0649C20.0688 33.0845 20.1698 33.1136 20.2658 33.1296C20.3618 33.1455 20.5861 33.1881 20.7644 33.2242C21.3431 33.3415 23.1361 33.3037 23.5567 33.1655C23.6253 33.143 23.7824 33.0958 23.9058 33.0608C24.5757 32.8706 24.8825 32.7297 25.6011 32.2825C25.7794 32.1715 25.9926 32.0409 26.0748 31.9922C26.2658 31.8793 26.5117 31.7277 27.6455 31.0235C28.1529 30.7085 28.6465 30.4048 28.7425 30.3487C28.8385 30.2927 28.9766 30.2036 29.0494 30.1508C29.1222 30.098 29.1967 30.0549 29.2149 30.0549C29.2332 30.0549 29.3459 29.9861 29.4655 29.902C29.5851 29.8179 29.6973 29.7491 29.7148 29.7491C29.7324 29.7491 29.8446 29.6803 29.9641 29.5962C30.0837 29.5121 30.1965 29.4433 30.2148 29.4433C30.233 29.4433 30.3075 29.4001 30.3803 29.3473C30.4531 29.2945 30.5912 29.2055 30.6872 29.1494C30.7831 29.0933 31.2768 28.7898 31.7841 28.475C32.2915 28.1601 32.7739 27.862 32.8562 27.8126Z" fill="url(#paint2_linear_1691_10373)"/>
<defs>
<linearGradient id="paint0_linear_1691_10373" x1="8.62162" y1="6" x2="25.4133" y2="7.98468" gradientUnits="userSpaceOnUse">
<stop stop-color="#B6F9B7"/>
<stop offset="1" stop-color="#EFFA90"/>
</linearGradient>
<linearGradient id="paint1_linear_1691_10373" x1="8.62162" y1="6" x2="25.4133" y2="7.98468" gradientUnits="userSpaceOnUse">
<stop stop-color="#B6F9B7"/>
<stop offset="1" stop-color="#EFFA90"/>
</linearGradient>
<linearGradient id="paint2_linear_1691_10373" x1="8.62162" y1="6" x2="25.4133" y2="7.98468" gradientUnits="userSpaceOnUse">
<stop stop-color="#B6F9B7"/>
<stop offset="1" stop-color="#EFFA90"/>
</linearGradient>
</defs>
</svg>
