<svg width="24" height="24" viewBox="0 0 24 24" fill="none" xmlns="http://www.w3.org/2000/svg">
<g clip-path="url(#clip0_5312_36615)">
<path d="M12 24.0001C18.6274 24.0001 24 18.6275 24 12.0001C24 5.49842 18.7505 -0.320519 11.084 -0.0240522C10.7982 -0.012999 10.53 0.120007 10.3403 0.334067L0.274531 11.6903C0.0976609 11.8899 -0.00202012 12.1482 0.00702829 12.4147C0.225533 18.8501 5.51135 24.0001 12 24.0001Z" fill="url(#paint0_linear_5312_36615)"/>
<path d="M12 24.0001C18.6274 24.0001 24 18.6275 24 12.0001C24 5.49842 18.7505 -0.320519 11.084 -0.0240522C10.7982 -0.012999 10.53 0.120007 10.3403 0.334067L0.274531 11.6903C0.0976609 11.8899 -0.00202012 12.1482 0.00702829 12.4147C0.225533 18.8501 5.51135 24.0001 12 24.0001Z" fill="url(#paint1_radial_5312_36615)"/>
<path d="M11.9256 -0.54541L2.72727 22.0057L11.9256 12.5199M21.8182 2.67618L11.9256 12.5199M11.9256 12.5199L21.8182 22.3637" stroke="white" stroke-width="2.18182"/>
</g>
<defs>
<linearGradient id="paint0_linear_5312_36615" x1="15.5004" y1="0.345925" x2="2.88196" y2="22.2006" gradientUnits="userSpaceOnUse">
<stop offset="0.104167" stop-color="#FF9A03"/>
<stop offset="0.625" stop-color="#FC3300"/>
<stop offset="1" stop-color="#7E1C24"/>
</linearGradient>
<radialGradient id="paint1_radial_5312_36615" cx="0" cy="0" r="1" gradientUnits="userSpaceOnUse" gradientTransform="translate(16.1743 18.6775) rotate(74.3441) scale(26.222 26.3244)">
<stop stop-color="#D5006F"/>
<stop offset="1" stop-color="#FA3B05" stop-opacity="0"/>
</radialGradient>
<clipPath id="clip0_5312_36615">
<rect width="24" height="24" rx="12" fill="white"/>
</clipPath>
</defs>
</svg>
