<svg width="30" height="30" viewBox="0 0 30 30" fill="none" xmlns="http://www.w3.org/2000/svg">
<circle cx="15" cy="15" r="15" fill="#3829D2"/>
<path fill-rule="evenodd" clip-rule="evenodd" d="M14.2834 6.22168C12.2317 6.40622 10.3713 7.27435 8.92395 8.72246C8.16318 9.48362 7.72107 10.0988 7.26173 11.0355C6.6131 12.3581 6.32747 13.6937 6.38073 15.1552C6.4049 15.8182 6.38164 15.9877 6.22177 16.3135C6.05379 16.6558 5.80552 16.871 5.25028 17.1556L4.80566 17.3834L4.80518 18.2542C4.80485 18.831 4.81602 19.125 4.83827 19.125C4.85677 19.125 5.09494 19.0097 5.36758 18.8688C5.64025 18.7279 6.31037 18.3854 6.85678 18.1077C7.40319 17.83 8.53184 17.2553 9.36489 16.8305C10.1979 16.4057 11.3119 15.8381 11.8404 15.569C12.3689 15.3 13.1238 14.9152 13.5179 14.714C14.5453 14.1893 15.7175 13.5921 17.671 12.5982C18.6115 12.1196 19.6889 11.5705 20.0651 11.3779C20.4413 11.1853 21.2035 10.7968 21.7589 10.5146C22.3142 10.2324 22.9592 9.90303 23.1921 9.78259C23.425 9.66214 23.971 9.38361 24.4054 9.16365L25.1953 8.7637V7.87382V6.98395L25.0569 7.0596C24.9808 7.10124 24.2882 7.45441 23.5178 7.84443C22.7475 8.23445 21.8973 8.66702 21.6286 8.80566C21.3599 8.94434 20.7149 9.27391 20.1954 9.53811C19.6758 9.80228 18.9429 10.1761 18.5667 10.3687C18.1905 10.5613 17.1132 11.1104 16.1726 11.5889C15.2321 12.0674 14.0888 12.6496 13.6319 12.8827C12.2575 13.5838 11.2886 14.0774 10.2932 14.5837C9.77368 14.8479 9.05073 15.2175 8.68669 15.4049C8.32262 15.5923 8.01504 15.736 8.00315 15.7241C7.96188 15.6828 7.95595 14.3419 7.99562 14.02C8.25227 11.9374 9.38069 10.1028 11.1144 8.94948C11.5125 8.68466 12.2419 8.32231 12.6728 8.1753C13.4612 7.90628 14.1421 7.79098 14.9674 7.78678C16.097 7.78098 17.1101 8.007 18.0781 8.48071L18.469 8.672L19.2487 8.27296C19.6775 8.05348 20.0329 7.86015 20.0383 7.84332C20.0557 7.7898 19.3694 7.36635 18.8191 7.09108C18.0242 6.69347 17.184 6.43025 16.2378 6.28239C15.9078 6.23082 14.6247 6.19095 14.2834 6.22168ZM24.6579 10.7857C24.3891 10.9251 23.6123 11.3223 22.9315 11.6684C21.5477 12.3719 19.0075 13.6658 17.7198 14.3232C17.254 14.561 16.0887 15.1543 15.1303 15.6418C14.1718 16.1292 13.1091 16.671 12.7688 16.8457C12.4284 17.0204 11.6442 17.4207 11.0261 17.7352C10.408 18.0497 9.41131 18.5571 8.81115 18.8627C8.211 19.1684 7.06427 19.7516 6.26288 20.1588L4.80576 20.8992L4.80524 21.7884L4.80469 22.6776L6.00174 22.069C6.66014 21.7342 7.404 21.3542 7.65481 21.2246C7.90563 21.0949 8.62386 20.7286 9.25089 20.4107C9.87791 20.0927 10.6255 19.7119 10.9121 19.5644C11.1987 19.4169 11.9463 19.0361 12.5733 18.7181C13.2003 18.4001 13.9772 18.0046 14.2997 17.8391C14.6222 17.6736 15.3111 17.322 15.8306 17.0578C17.4439 16.2375 18.4759 15.7117 19.153 15.3651C19.5113 15.1818 20.2981 14.7803 20.9014 14.4731L21.9982 13.9144L22.0251 14.1026C22.0722 14.4317 22.0525 15.4303 21.9909 15.8371C21.6352 18.1888 20.201 20.1461 18.0781 21.177C17.4137 21.4997 16.7903 21.6953 16.0379 21.8171C15.5626 21.8941 14.427 21.8933 13.9577 21.8156C13.2117 21.6922 12.5772 21.4957 11.9475 21.1931L11.5358 20.9953L10.7526 21.392C10.3218 21.6102 9.96524 21.8011 9.96023 21.8162C9.94264 21.8689 10.6233 22.2893 11.1579 22.5559C11.9731 22.9624 12.6729 23.1909 13.632 23.3639C13.9941 23.4292 14.1453 23.4374 15 23.4375C15.8525 23.4376 16.0083 23.4293 16.3812 23.3641C18.2341 23.0396 19.7933 22.2405 21.094 20.9486C22.2092 19.8409 22.9919 18.4697 23.3708 16.9602C23.5787 16.1321 23.6111 15.8446 23.6189 14.7613C23.6263 13.7277 23.6371 13.6425 23.8022 13.3156C23.9644 12.9947 24.207 12.7877 24.7362 12.5194L25.1953 12.2866V11.4088C25.1953 10.926 25.1843 10.5312 25.1709 10.5316C25.1574 10.532 24.9266 10.6464 24.6579 10.7857Z" fill="white"/>
</svg>
