<svg width="30" height="30" viewBox="0 0 30 30" fill="none" xmlns="http://www.w3.org/2000/svg">
<g clip-path="url(#clip0_5299_46352)">
<circle cx="15" cy="15" r="15" fill="#2C7DF7"/>
<path d="M16.9899 24.5455C15.6649 24.5455 14.6978 24.2173 14.0886 23.5611C13.5242 23.0056 13.1967 22.2429 13.1777 21.4399C13.1708 21.1959 13.2258 20.9543 13.3372 20.7388C13.4412 20.5526 13.5913 20.3981 13.7724 20.2911C13.9828 20.1832 14.2147 20.127 14.4498 20.127C14.6849 20.127 14.9169 20.1832 15.1273 20.2911C15.308 20.3977 15.4574 20.5523 15.5599 20.7388C15.6746 20.9533 15.7316 21.1952 15.7252 21.4399C15.7371 21.732 15.6555 22.0201 15.4931 22.2602C15.3578 22.4561 15.1643 22.6017 14.9417 22.6751C15.1594 22.96 15.4674 23.1575 15.8121 23.233C16.1977 23.3481 16.5971 23.4073 16.9986 23.4089C17.5303 23.4137 18.051 23.2536 18.4928 22.9495C18.9512 22.6166 19.293 22.1407 19.4676 21.5923C19.689 20.9397 19.797 20.2521 19.7868 19.561C19.8046 18.8405 19.6864 18.1232 19.4386 17.449C19.2522 16.9098 18.8985 16.4485 18.4319 16.1365C17.9982 15.8543 17.4947 15.7063 16.9815 15.71C16.5343 15.7489 16.1031 15.8995 15.7252 16.1485L14.7937 16.6287V16.1485L18.9802 10.3741H13.1777V16.3662C13.1613 16.7986 13.2725 17.226 13.4968 17.5922C13.6053 17.7518 13.7521 17.8798 13.9229 17.964C14.0936 18.0481 14.2827 18.0855 14.4716 18.0724C14.8207 18.0652 15.1583 17.9428 15.4348 17.7234C15.7481 17.4874 16.0207 17.199 16.2414 16.8703C16.2612 16.8127 16.2978 16.7627 16.3463 16.7272C16.3851 16.6927 16.4348 16.6736 16.4861 16.6735C16.5869 16.683 16.6823 16.7247 16.7589 16.7928C16.8558 16.9042 16.9086 17.0489 16.9068 17.1984C16.8956 17.2989 16.8782 17.3985 16.8546 17.4967C16.6485 18.0097 16.3029 18.4507 15.8594 18.767C15.4474 19.0536 14.9609 19.2056 14.4635 19.203C13.2072 19.203 12.3368 18.9485 11.8525 18.4394C11.6035 18.158 11.4117 17.8284 11.2881 17.4698C11.1646 17.1113 11.1118 16.731 11.133 16.3513V10.3741H8.18164V9.26078H11.1467V6.72228L10.4679 6.02384V5.45459H12.4377L13.1777 5.84839V9.26078L20.8427 9.23681L21.6058 10.0243L16.9057 14.8802C17.1897 14.7628 17.4887 14.6884 17.7935 14.6594C18.3966 14.6866 18.9851 14.8593 19.5113 15.1636C20.1207 15.4614 20.6342 15.9326 20.9911 16.5213C21.3108 17.0197 21.5371 17.5751 21.6584 18.159C21.7581 18.6195 21.8116 19.0893 21.818 19.5611C21.8211 20.4614 21.6225 21.3504 21.2377 22.1592C20.8728 22.9423 20.2586 23.5738 19.4969 23.949C18.7172 24.344 17.8591 24.5482 16.9899 24.5455V24.5455Z" fill="white"/>
</g>
<defs>
<clipPath id="clip0_5299_46352">
<rect width="30" height="30" fill="white"/>
</clipPath>
</defs>
</svg>
