<svg width="79" height="79" viewBox="0 0 79 79" fill="none" xmlns="http://www.w3.org/2000/svg">
<circle cx="39.5" cy="39.5" r="39" fill="#151316" fill-opacity="0.13" stroke="#2D2C2E"/>
<path d="M50.5249 34.7695L44.1979 28.3978H34.6117L31.5444 31.4871V20.4814H28.2847V39.9827V44.2305L34.6117 50.6021H44.1979L47.2656 47.5128V58.5185H50.7168V40.1758L50.5249 34.7695ZM42.664 47.3198H36.3375L31.7358 42.6858V39.9827V36.3141L36.3375 31.6802H42.664L47.2656 36.3141V40.3688V42.6858L42.664 47.3198Z" fill="white"/>
<path d="M23.7693 45.8084V28.2839H20.4819V47.349L31.6982 58.5185H42.914V55.2447H33.2449L23.7693 45.8084Z" fill="#66DDDD"/>
<path d="M36.0869 20.4814V23.7553H45.756L55.2316 33.1915V50.716H58.519V31.6509L47.3027 20.4814H36.0869Z" fill="#66DDDD"/>
</svg>
