<svg width="79" height="80" viewBox="0 0 79 80" fill="none" xmlns="http://www.w3.org/2000/svg">
<circle cx="39.5" cy="39.5" r="39" fill="#151316" fill-opacity="0.13" stroke="#2D2C2E"/>
<path fill-rule="evenodd" clip-rule="evenodd" d="M33.3604 20.3527C20.8311 22.5335 14.1821 36.7903 20.31 48.335C21.6639 50.8858 23.4303 52.8691 26.4282 55.2051C26.9472 55.6094 29.7683 56.9405 31.1783 57.4461C32.4801 57.913 33.1715 57.9881 36.276 57.9989C39.4183 58.01 40.084 57.9414 41.5974 57.4492C43.2272 56.9191 45.9853 55.6236 46.2398 55.2684C46.3035 55.1796 46.7206 54.8763 47.1666 54.5946C47.6127 54.3129 48.3912 53.6422 48.8968 53.1042L49.816 52.1257L47.5109 49.7297C46.243 48.4118 45.1155 47.3334 45.0052 47.3334C44.8949 47.3334 44.3399 47.7569 43.772 48.2748C42.2677 49.6459 40.7435 50.386 38.4697 50.8486C36.5886 51.2313 36.3307 51.2321 34.468 50.8601C31.7993 50.3274 30.2508 49.494 28.4031 47.5967C25.8938 45.0202 24.922 42.6659 24.922 39.1637C24.922 31.0974 32.3267 25.3341 39.6695 27.6854C41.6815 28.3297 42.9529 28.3026 44.4634 27.5832C45.7745 26.9591 48.217 25.3926 48.4262 25.0418C48.7666 24.4714 44.8659 21.9552 42.296 21.0872C40.4766 20.4727 37.5442 19.9606 36.0856 20.0024C35.6168 20.0158 34.3904 20.1735 33.3604 20.3527ZM57.9013 36.6919C56.9021 37.4751 55.627 38.5595 49.8411 43.5476L48.2288 44.9374L47.1764 43.8821C44.0035 40.7004 43.6121 40.3746 42.9649 40.3746C42.1285 40.3746 41.5202 41.2586 41.738 42.1572C41.8847 42.7629 42.8553 43.494 43.5129 43.494C44.0545 43.494 53.4229 53.4207 53.4229 53.9945C53.4229 54.6131 54.4408 55.732 55.0039 55.732C55.7375 55.732 56.4352 55.0266 56.4352 54.2851C56.4352 53.7828 56.1569 53.2945 55.4504 52.5569C54.9087 51.9913 53.9088 50.9151 53.2285 50.165L51.9911 48.8015L53.3372 47.0476C54.0775 46.083 54.7627 45.1858 54.8598 45.0538C54.9569 44.9218 55.8649 43.776 56.8778 42.5073C58.6597 40.2755 58.7554 40.1967 59.8284 40.0715C62.1384 39.8018 62.808 37.2304 60.8424 36.1777C59.7995 35.6193 59.1178 35.7383 57.9013 36.6919Z" fill="#FEB228"/>
<circle cx="61.5" cy="61.874" r="17" fill="#151316" stroke="#2D2C2E"/>
<path d="M66.3845 59.7786L63.5814 56.9557H59.3343L57.9754 58.3244V53.4485H56.5312V62.0883V63.9702L59.3343 66.7931H63.5814L64.9405 65.4244V70.3003H66.4695V62.1738L66.3845 59.7786ZM62.9018 65.3389H60.0989L58.0602 63.2859V62.0883V60.463L60.0989 58.4099H62.9018L64.9405 60.463V62.2594V63.2859L62.9018 65.3389Z" fill="white"/>
<path d="M54.5316 64.6693V56.9053H53.0752V65.3518L58.0444 70.3003H63.0135V68.8499H58.7297L54.5316 64.6693Z" fill="#66DDDD"/>
<path d="M59.9893 53.4485V54.8989H64.273L68.4711 59.0795V66.8435H69.9275V58.397L64.9583 53.4485H59.9893Z" fill="#66DDDD"/>
</svg>
