<svg width="79" height="80" viewBox="0 0 79 80" fill="none" xmlns="http://www.w3.org/2000/svg">
<circle cx="39.5" cy="39.5" r="39" fill="#151316" fill-opacity="0.13" stroke="#2D2C2E"/>
<path d="M21.2001 36.1327C22.746 27.4421 29.4618 21.092 38.0824 20.1695C38.8145 20.0913 39.5365 20.0171 39.6869 20.0047C40.3372 19.9512 43.4835 20.3653 44.7496 20.6711C46.2847 21.0418 46.8279 21.2513 48.6655 22.1812C54.938 25.3553 58.9987 32.1048 59 39.3593C59.0003 41.3683 58.7848 42.6912 58.106 44.8478C57.5453 46.6292 57.0317 47.3105 56.1241 47.4764C54.806 47.717 54.4851 47.4718 49.3489 42.2958C46.7028 39.6294 44.1657 37.1759 43.711 36.8437C41.6754 35.3568 38.3086 35.3624 36.2637 36.8562C35.7997 37.1952 33.3042 39.6104 30.7184 42.2236C26.7862 46.1973 25.8873 47.023 25.2251 47.2699C23.8898 47.7678 22.8996 47.3851 22.36 46.1631C21.2034 43.5432 20.6828 39.0411 21.2001 36.1327Z" fill="#0F3B62"/>
<path d="M39.5797 39.056C39.3967 39.0906 39.0596 39.1588 38.8308 39.2077C38.5708 39.2635 36.3707 41.3694 32.9647 44.8236C28.1549 49.7014 27.4833 50.4469 27.2464 51.1719C26.9993 51.9287 26.9994 52.0502 27.2491 52.7148C27.6029 53.6571 29.3849 54.9722 31.9234 56.1646C37.2769 58.6794 43.1155 58.608 48.4844 55.9625C52.4384 54.014 53.5638 52.6131 52.6456 50.7828C52.3019 50.0979 42.1052 39.6859 41.4399 39.3405C41.0078 39.1163 40.0441 38.9689 39.5797 39.056Z" fill="#D9D9D9"/>
<circle cx="61.5" cy="61.874" r="17" fill="#151316" stroke="#2D2C2E"/>
<path d="M66.3845 59.7784L63.5814 56.9555H59.3343L57.9754 58.3242V53.4482H56.5312V62.088V63.97L59.3343 66.7929H63.5814L64.9405 65.4242V70.3001H66.4695V62.1736L66.3845 59.7784ZM62.9018 65.3386H60.0989L58.0602 63.2856V62.088V60.4627L60.0989 58.4097H62.9018L64.9405 60.4627V62.2591V63.2856L62.9018 65.3386Z" fill="white"/>
<path d="M54.5316 64.6688V56.9048H53.0752V65.3513L58.0444 70.2998H63.0135V68.8494H58.7297L54.5316 64.6688Z" fill="#66DDDD"/>
<path d="M59.9893 53.4482V54.8987H64.273L68.4711 59.0793V66.8433H69.9275V58.3967L64.9583 53.4482H59.9893Z" fill="#66DDDD"/>
</svg>
