<svg width="79" height="80" viewBox="0 0 79 80" fill="none" xmlns="http://www.w3.org/2000/svg">
<circle cx="39.5" cy="40.126" r="39" fill="#151316" fill-opacity="0.13" stroke="#2D2C2E"/>
<path fill-rule="evenodd" clip-rule="evenodd" d="M23 39.626V56.626L23.0751 56.5664C23.1164 56.5336 25.0555 54.8846 27.3842 52.9019L31.6183 49.297L31.6181 40.4195L31.618 31.542L27.3601 27.084C24.4863 24.0752 23.0856 22.626 23.0511 22.626C23.0001 22.626 23 22.668 23 39.626Z" fill="#6DB7F2"/>
<path d="M39.7809 39.483C39.7931 39.483 40.7975 38.6055 42.0128 37.533C43.2282 36.4605 44.2274 35.583 44.2334 35.583C44.2393 35.583 44.2442 38.5258 44.2442 42.1224V48.6618L39.9402 52.5939L35.6361 56.5259L35.6296 51.4169C35.6261 48.6069 35.6261 44.011 35.6296 41.2037L35.6361 36.0996L37.6974 37.7913C38.8311 38.7217 39.7687 39.483 39.7809 39.483Z" fill="#2491EB"/>
<path d="M49.8591 29.8604C50.7438 28.9355 52.6601 26.9294 54.1175 25.4024C56.2369 23.1818 56.7801 22.626 56.8308 22.626H56.8942L56.893 35.6408L56.8918 48.6556L52.5927 52.5812C50.2281 54.7403 48.2832 56.5106 48.2706 56.5153C48.257 56.5204 48.2482 51.3802 48.2491 44.0329L48.2506 31.542L49.8591 29.8604Z" fill="#1B70BB"/>
<circle cx="61.5" cy="62.5" r="17" fill="#151316" stroke="#2D2C2E"/>
<path d="M66.7717 62.8034C66.7717 65.4865 64.5838 67.6617 61.8849 67.6617C59.186 67.6617 56.998 65.4865 56.998 62.8034M66.7717 62.8034C66.7717 60.1203 64.5838 57.9451 61.8849 57.9451C59.186 57.9451 56.998 60.1203 56.998 62.8034M66.7717 62.8034L66.7717 70.9998M56.998 62.8034L56.998 54.6897" stroke="#5B978E" stroke-width="1.80897" stroke-linecap="round"/>
<ellipse cx="61.9551" cy="62.8451" rx="3.99908" ry="3.95473" fill="url(#paint0_linear_5734_42859)"/>
<path d="M61.6385 71L60.8111 71C56.8148 71 53.5752 67.7604 53.5752 63.7641L53.5752 56.9854" stroke="#5B978E" stroke-width="1.80897" stroke-linecap="round"/>
<path d="M62.1272 54.569L62.9545 54.569C66.9508 54.569 70.1904 57.8087 70.1904 61.8049L70.1904 68.342" stroke="#5B978E" stroke-width="1.80897" stroke-linecap="round"/>
<defs>
<linearGradient id="paint0_linear_5734_42859" x1="59.7117" y1="60.3372" x2="63.0678" y2="66.4458" gradientUnits="userSpaceOnUse">
<stop stop-color="#D9D9D9" stop-opacity="0"/>
<stop offset="0.927064" stop-color="#5B978E" stop-opacity="0.5"/>
</linearGradient>
</defs>
</svg>
