<svg width="79" height="80" viewBox="0 0 79 80" fill="none" xmlns="http://www.w3.org/2000/svg">
<circle cx="39.5" cy="40.126" r="39" fill="#151316" fill-opacity="0.13" stroke="#2D2C2E"/>
<path fill-rule="evenodd" clip-rule="evenodd" d="M23 39.626V56.626L23.0751 56.5664C23.1164 56.5336 25.0555 54.8846 27.3842 52.9019L31.6183 49.297L31.6181 40.4195L31.618 31.542L27.3601 27.084C24.4863 24.0752 23.0856 22.626 23.0511 22.626C23.0001 22.626 23 22.668 23 39.626Z" fill="#6DB7F2"/>
<path d="M39.7809 39.483C39.7931 39.483 40.7975 38.6055 42.0128 37.533C43.2282 36.4605 44.2274 35.583 44.2334 35.583C44.2393 35.583 44.2442 38.5258 44.2442 42.1224V48.6618L39.9402 52.5939L35.6361 56.5259L35.6296 51.4169C35.6261 48.6069 35.6261 44.011 35.6296 41.2037L35.6361 36.0996L37.6974 37.7913C38.8311 38.7217 39.7687 39.483 39.7809 39.483Z" fill="#2491EB"/>
<path d="M49.8591 29.8604C50.7438 28.9355 52.6601 26.9294 54.1175 25.4024C56.2369 23.1818 56.7801 22.626 56.8308 22.626H56.8942L56.893 35.6408L56.8918 48.6556L52.5927 52.5812C50.2281 54.7403 48.2832 56.5106 48.2706 56.5153C48.257 56.5204 48.2482 51.3802 48.2491 44.0329L48.2506 31.542L49.8591 29.8604Z" fill="#1B70BB"/>
<circle cx="61.5" cy="62.5" r="17" fill="#151316" stroke="#2D2C2E"/>
<path d="M66.3845 60.4046L63.5814 57.5817H59.3343L57.9754 58.9504V54.0745H56.5312V62.7142V64.5962L59.3343 67.4191H63.5814L64.9405 66.0504V70.9263H66.4695V62.7998L66.3845 60.4046ZM62.9018 65.9649H60.0989L58.0602 63.9118V62.7142V61.0889L60.0989 59.0359H62.9018L64.9405 61.0889V62.8853V63.9118L62.9018 65.9649Z" fill="white"/>
<path d="M54.5316 65.2953V57.5312H53.0752V65.9778L58.0444 70.9263H63.0135V69.4759H58.7297L54.5316 65.2953Z" fill="#66DDDD"/>
<path d="M59.9893 54.0745V55.5249H64.273L68.4711 59.7055V67.4695H69.9275V59.023L64.9583 54.0745H59.9893Z" fill="#66DDDD"/>
</svg>
