<svg width="50" height="42" viewBox="0 0 50 42" fill="none" xmlns="http://www.w3.org/2000/svg">
<path d="M42.3063 6.07493C39.1396 4.64155 35.7109 3.6012 32.1394 3.00011C32.1081 2.99913 32.0769 3.00484 32.0481 3.01682C32.0193 3.02881 31.9936 3.04678 31.9727 3.06946C31.5441 3.83239 31.0441 4.8265 30.7108 5.58943C26.9226 5.03457 23.0701 5.03457 19.2819 5.58943C18.9485 4.80338 18.4485 3.83239 17.9961 3.06946C17.9723 3.02323 17.9009 3.00011 17.8295 3.00011C14.2579 3.6012 10.8531 4.64155 7.66251 6.07493C7.6387 6.07493 7.61489 6.09805 7.59108 6.12116C1.11471 15.5306 -0.671056 24.6857 0.20992 33.7483C0.20992 33.7945 0.23373 33.8408 0.281351 33.8639C4.56718 36.9156 8.68634 38.7651 12.7579 39.9904C12.8293 40.0135 12.9007 39.9904 12.9246 39.9442C13.877 38.6726 14.7341 37.3317 15.4722 35.9215C15.5199 35.829 15.4722 35.7365 15.377 35.7134C14.0198 35.2048 12.7341 34.6037 11.4721 33.9101C11.3769 33.8639 11.3769 33.7252 11.4483 33.6558C11.7102 33.4709 11.9721 33.2628 12.2341 33.0779C12.2817 33.0316 12.3531 33.0316 12.4007 33.0547C20.5914 36.6844 29.425 36.6844 37.5205 33.0547C37.5681 33.0316 37.6395 33.0316 37.6871 33.0779C37.9491 33.2859 38.211 33.4709 38.4729 33.679C38.5681 33.7483 38.5681 33.887 38.4491 33.9333C37.2109 34.6499 35.9014 35.2279 34.5442 35.7365C34.449 35.7597 34.4251 35.8753 34.449 35.9446C35.2109 37.3549 36.0681 38.6958 36.9966 39.9673C37.0681 39.9904 37.1395 40.0135 37.2109 39.9904C41.3063 38.7651 45.4254 36.9156 49.7113 33.8639C49.7589 33.8408 49.7827 33.7945 49.7827 33.7483C50.8304 23.2754 48.0446 14.1897 42.4016 6.12116C42.3777 6.09805 42.3539 6.07493 42.3063 6.07493ZM16.7104 28.2229C14.2579 28.2229 12.2102 26.0266 12.2102 23.3217C12.2102 20.6167 14.2103 18.4204 16.7104 18.4204C19.2343 18.4204 21.2343 20.6399 21.2105 23.3217C21.2105 26.0266 19.2104 28.2229 16.7104 28.2229ZM33.3061 28.2229C30.8536 28.2229 28.8059 26.0266 28.8059 23.3217C28.8059 20.6167 30.806 18.4204 33.3061 18.4204C35.8299 18.4204 37.83 20.6399 37.8062 23.3217C37.8062 26.0266 35.8299 28.2229 33.3061 28.2229Z" fill="white"/>
</svg>
