<svg width="42" height="42" viewBox="0 0 42 42" fill="none" xmlns="http://www.w3.org/2000/svg">
<path d="M38.6487 8.76084L42 5.67537V5H30.3905L22.1165 24.8198L12.7032 5H0.53025V5.67537L4.445 10.2109C4.8265 10.5461 5.026 11.0362 4.97525 11.5297V29.3537C5.096 29.9954 4.879 30.6556 4.41 31.1221L0 36.2657V36.9326H12.5037V36.2573L8.09375 31.1221C7.616 30.6539 7.39025 30.0055 7.4865 29.3537V13.9364L18.4625 36.9411H19.7383L29.176 13.9364V32.2623C29.176 32.7457 29.176 32.8451 28.847 33.1617L25.452 36.3229V37H41.923V36.3246L38.6505 33.2408C38.3635 33.032 38.2147 32.6817 38.276 32.3415V9.66021C38.2147 9.31832 38.3617 8.968 38.6487 8.76084Z" fill="white"/>
</svg>
