<svg width="45" height="42" viewBox="0 0 45 42" fill="none" xmlns="http://www.w3.org/2000/svg">
<path d="M39.2095 16.1944C37.9101 16.1944 36.7263 16.7059 35.86 17.535C32.5559 15.1714 28.0225 13.6369 22.9859 13.4389L25.1886 3.12225L32.3579 4.65675C32.3894 5.32615 32.6166 5.97159 33.0114 6.51307C33.4063 7.05455 33.9513 7.46825 34.5791 7.70289C35.2068 7.93753 35.8895 7.9828 36.5428 7.83309C37.196 7.68337 37.7909 7.34525 38.2537 6.86064C38.7166 6.37602 39.0271 5.76623 39.1466 5.10685C39.2662 4.44746 39.1897 3.76748 38.9265 3.15119C38.6633 2.5349 38.225 2.0094 37.666 1.63982C37.107 1.27026 36.4518 1.07287 35.7816 1.07213C35.1406 1.07436 34.5132 1.25649 33.9706 1.59778C33.428 1.93908 32.9922 2.42582 32.7126 3.00263L24.7184 1.31138C24.6108 1.28819 24.4996 1.28646 24.3913 1.30628C24.283 1.3261 24.1797 1.36708 24.0872 1.42688C23.9909 1.48701 23.9091 1.56778 23.8477 1.66337C23.7864 1.75896 23.747 1.86698 23.7325 1.97963L21.2905 13.4801C16.1755 13.6369 11.5638 15.1714 8.21425 17.5721C7.348 16.7471 6.16825 16.2356 4.873 16.2356C3.77453 16.234 2.70878 16.6094 1.85382 17.2991C0.998854 17.9888 0.406472 18.951 0.175652 20.0249C-0.0551691 21.0989 0.0895529 22.2195 0.585638 23.1996C1.08172 24.1796 1.89912 24.9598 2.90125 25.4096C2.81875 25.884 2.78163 26.3584 2.78163 26.8658C2.78163 34.2701 11.407 40.2968 22.0413 40.2968C32.6714 40.2968 41.2968 34.3114 41.2968 26.8658C41.2968 26.3955 41.2555 25.884 41.1771 25.4096C42.8313 24.663 44.0151 22.9676 44.0151 21C44.0151 18.3188 41.8495 16.1944 39.2095 16.1944Z" fill="white"/>
</svg>
