<svg width="43" height="42" viewBox="0 0 43 42" fill="none" xmlns="http://www.w3.org/2000/svg">
<path d="M0.688856 20.3029L9.67525 23.6612L13.1535 34.8618C13.3761 35.5792 14.2522 35.8443 14.8337 35.3683L19.8428 31.2795C20.3679 30.8511 21.1158 30.8297 21.6645 31.2286L30.6993 37.7965C31.3213 38.2492 32.2026 37.9079 32.3586 37.1553L38.977 5.27818C39.1473 4.45604 38.3405 3.77018 37.5587 4.07295L0.678326 18.3187C-0.231805 18.6702 -0.223875 19.9604 0.688856 20.3029ZM12.593 21.8735L30.1557 11.0426C30.4714 10.8485 30.7961 11.2758 30.5251 11.5276L16.0307 25.0182C15.5212 25.4931 15.1926 26.1286 15.0995 26.8183L14.6058 30.482C14.5404 30.9712 13.8541 31.0198 13.7193 30.5464L11.8204 23.8655C11.6029 23.1035 11.9198 22.2895 12.593 21.8735Z" fill="white"/>
</svg>
