<svg width="42" height="42" viewBox="0 0 42 42" fill="none" xmlns="http://www.w3.org/2000/svg">
<path d="M42 8.02508C40.4381 8.70769 38.7739 9.16015 37.0387 9.37985C38.8237 8.318 40.1861 6.64938 40.8266 4.63815C39.1624 5.62677 37.3249 6.32508 35.3666 6.71477C33.7864 5.03831 31.5341 4 29.0771 4C24.3101 4 20.4724 7.85508 20.4724 12.5811C20.4724 13.2611 20.5301 13.9149 20.6719 14.5374C13.5135 14.1895 7.17938 10.7712 2.92425 5.564C2.18138 6.84815 1.74563 8.318 1.74563 9.90031C1.74563 12.8714 3.28125 15.5051 5.57025 17.0298C4.18687 17.0037 2.82975 16.6035 1.68 15.9732C1.68 15.9994 1.68 16.0334 1.68 16.0674C1.68 20.2363 4.66462 23.6991 8.5785 24.4968C7.87762 24.6877 7.11375 24.7792 6.321 24.7792C5.76975 24.7792 5.21325 24.7478 4.69088 24.6328C5.8065 28.0302 8.97225 30.5278 12.7365 30.6089C9.807 32.8922 6.08738 34.2678 2.06063 34.2678C1.3545 34.2678 0.67725 34.2365 0 34.1502C3.81412 36.6008 8.33438 38 13.209 38C29.0535 38 37.716 24.9231 37.716 13.588C37.716 13.2088 37.7029 12.8426 37.6845 12.4791C39.3934 11.2708 40.8293 9.76169 42 8.02508Z" fill="white"/>
</svg>
