<svg width="31" height="30" viewBox="0 0 31 30" fill="none" xmlns="http://www.w3.org/2000/svg">
<g clip-path="url(#clip0_393_10225)">
<path d="M7.81592 16.3034C8.36799 20.6612 12.3669 23.744 16.7478 23.189C18.2273 23.0016 19.5612 22.4232 20.6578 21.5714M7.81592 16.3034C7.26385 11.9457 10.3677 7.96309 14.7486 7.4081C16.0883 7.23838 17.3922 7.40885 18.5728 7.85193M7.81592 16.3034L6.96533 9.58926M18.5728 7.85193C21.2529 8.85777 23.2972 11.2685 23.6805 14.2936C24.0461 17.1797 22.8082 19.9011 20.6578 21.5714M18.5728 7.85193L24.5286 10.3531M20.6578 21.5714L15.5139 25.4787" stroke="#61CFC9" stroke-width="3.09051" stroke-linecap="round"/>
<path d="M8.37048 4.74977C9.50083 4.02312 12.1006 2.56982 15.7177 2.56982C19.3348 2.56982 22.6882 4.02312 23.6301 4.74977" stroke="#61CFC9" stroke-width="3.09051" stroke-linecap="round"/>
<path d="M29.0804 13.4692C29.1445 14.9009 29.1032 18.0777 27.2946 21.4192C25.4861 24.7606 22.5508 27.0833 21.4505 27.5659" stroke="#61CFC9" stroke-width="3.09051" stroke-linecap="round"/>
<path d="M2.62788 13.4692C2.56376 14.9009 2.60506 18.0777 4.41361 21.4192C6.22216 24.7606 9.15743 27.0833 10.2577 27.5659" stroke="#61CFC9" stroke-width="3.09051" stroke-linecap="round"/>
</g>
<defs>
<clipPath id="clip0_393_10225">
<rect width="29.9785" height="29.9785" fill="white" transform="translate(0.765625)"/>
</clipPath>
</defs>
</svg>
